<svg width="133" height="131" viewBox="0 0 133 131" fill="none" xmlns="http://www.w3.org/2000/svg">

<g filter="url(#filter0_d_1_107)">

<ellipse cx="6.8798" cy="4.02804" rx="4.1516" ry="4.02804" fill="#00FF9D"/>

<ellipse cx="6.8798" cy="29.8075" rx="4.1516" ry="4.02804" fill="#00FF9D"/>

<ellipse cx="6.8798" cy="55.5869" rx="4.1516" ry="4.02804" fill="#00FF9D"/>

<ellipse cx="6.8798" cy="81.3664" rx="4.1516" ry="4.02804" fill="#00FF9D"/>

<ellipse cx="6.8798" cy="107.146" rx="4.1516" ry="4.02804" fill="#00FF9D"/>

<ellipse cx="33.4497" cy="4.02804" rx="4.1516" ry="4.02804" fill="#00FF9D"/>

<ellipse cx="33.4497" cy="29.8075" rx="4.1516" ry="4.02804" fill="#00FF9D"/>

<ellipse cx="33.4497" cy="55.5869" rx="4.1516" ry="4.02804" fill="#00FF9D"/>

<ellipse cx="33.4497" cy="81.3664" rx="4.1516" ry="4.02804" fill="#00FF9D"/>

<ellipse cx="33.4497" cy="107.146" rx="4.1516" ry="4.02804" fill="#00FF9D"/> <ellipse cx="60.0203" cy="4.02804" rx="4.1516" ry="4.02804" fill="#00FF9D"/> <ellipse cx="86.5902" cy="81.3664" rx="4.1516" ry="4.02804" fill="#00FF9D"/> <ellipse cx="86.5902" cy="107.146" rx="4.1516" ry="4.02804" fill="#00FF9D"/> <ellipse cx="113.161" cy="4.02804" rx="4.1516" ry="4.02804" fill="#00FF9D"/> <ellipse cx="113.161" cy="29.8075" rx="4.1516" ry="4.02804" fill="#00FF9D"/> <ellipse cx="113.161" cy="81.3664" rx="4.1516" ry="4.02804" fill="#00FF9D"/> <ellipse cx="113.161" cy="107.146" rx="4.1516" ry="4.02804" fill="#00FF9D"/>

<ellipse cx="60.0203" cy="29.8075" rx="4.1516" ry="4.02804" fill="#00FF9D"/> <ellipse cx="60.0203" cy="55.5869" rx="4.1516" ry="4.02804" fill="#00FF9D"/>

<ellipse cx="60.0203" cy="81.3664" rx="4.1516" ry="4.02804" fill="#00FF9D"/>

<ellipse cx="60.0203" cy="107.146" rx="4.1516" ry="4.02804" fill="#00FF9D"/>

<ellipse cx="86.5902" cy="4.02804" rx="4.1516" ry="4.02804" fill="#00FF9D"/>

<ellipse cx="86.5902" cy="29.8075" rx="4.1516" ry="4.02804" fill="#00FF9D"/> <ellipse cx="86.5902" cy="55.5869" rx="4.1516" ry="4.02804" fill="#00FF9D"/>

<ellipse cx="113.161" cy="55.5869" rx="4.1516" ry="4.02804" fill="#00FF9D"/>

</g> <g filter="url(#filter1_d_1_107)"> <ellipse cx="19.8392" cy="18.3511" rx="4.1516" ry="4.02804" fill="#223345"/> <ellipse cx="19.8392" cy="44.1306" rx="4.1516" ry="4.02804" fill="#223345"/> <ellipse cx="19.8392" cy="69.91" rx="4.1516" ry="4.02804" fill="#223345"/>

<ellipse cx="19.8392" су="95.6895" rx="4.1516" ry="4.02804" fill="#223345"/>

<ellipse cx="19.8392" cy="121.469" rx="4.1516" ry="4.02804" fill="#223345"/>
<ellipse cx="46.4091" су="18.3511" rx="4.1516" ry="4.02804" fill="#223345"/> <ellipse cx="46.4091" су="44.1306" rx="4.1516" ry="4.02804" fill="#223345"/>

<ellipse cx="46.4091" cy="69.91" гх="4.1516" ry="4.02804" fill="#223345"/>

<ellipse cx="46.4091" cy="95.6895" rx="4.1516" ry="4.02804" fill="#223345"/>

<ellipse cx="46.4091" cy="121.469" rx="4.1516" ry="4.02804" fill="#223345"/>

<ellipse cx="72.9797" cy="18.3511" rx="4.1516" ry="4.02804" fill="#223345"/>

<ellipse cx="72.9797" cy="44.1306" rx="4.1516" ry="4.02804" fill="#223345"/>

<ellipse cx="72.9797" cy="69.91" rx="4.1516" ry="4.02804" fill="#223345"/> <ellipse cx="72.9797" cy="95.6895" rx="4.1516" ry="4.02804" fill="#223345"/>

<ellipse cx="72.9797" cy="121.469" rx="4.1516" ry="4.02804" fill="#223345"/> 

<ellipse cx="99.5496" су="18.3511" rx="4.1516" ry="4.02804" fill="#223345"/> 
<ellipse cx="99.5496" cy="44.1306" rx="4.1516" ry="4.02804" fill="#223345"/>

 <ellipse cx="99.5496" су="69.91" rx="4.1516" ry="4.02804" fill="#223345"/>

<ellipse cx="99.5496" cy="95.6895" rx="4.1516" ry="4.02804" fill="#223345"/> <ellipse cx="99.5496" су="121.469" rx="4.1516" ry="4.02804" fill="#223345"/>

<ellipse cx="126.12" cy="18.3511" rx="4.1516" ry="4.02804" fill="#223345"/> <ellipse cx="126.12" cy="44.1306" rx="4.1516" ry="4.02804" fill="#223345"/>

<ellipse cx="126.12" cy="69.91" rx="4.1516" ry="4.02804" fill="#223345"/>

<ellipse cx="126.12" cy="95.6895" rx="4.1516" ry="4.02804" fill="#223345"/>

<ellipse cx="126.12" cy="121.469" rх="4.1516" ry="4.02804" fill="#223345"/>

</g> <defs>

<filter id="filter0_d_1_107" x="5.74652e-06" y="0" width="120.041" height="116.63" filterUnits="userSpaceOnUse" color-interpolation-filters="sRGB">

<feFlood flood-opacity="0" result="BackgroundImageFix"/>

<feColorMatrix in="SourceAlpha" type="matrix" values="000000 0 0 0 0 0 0 0 0 0 0 0 0 127 0" result="hardAlpha"/>

<feoffset dy="2.71658"/>

<feGaussianBlur stdDeviation="1.35829"/>

<feComposite in2="hardAlpha" operator="out"/> 

<feColorMatrix type="matrix" values="00000000000000 0 0 0 0 0.25 0"/>

<feBlend mode="normal" in2="Background ImageFix" result="effect1_dropShadow_1_107"/> <feBlend mode="normal" in="SourceGraphic" in2="effect1_dropShadow_1_107" result="shape"/>

 

</filter>

<filter id="filter1_d_1_107" x="12.9594" y="14.3231" width="120.041" height="116.63" filterUnits="userSpaceOnUse" color-interpolation-filters="sRGB">  <feFlood flood-opacity="0" result="Background ImageFix"/>
<feColorMatrix in="SourceAlpha" type="matrix" values="0000000000000 0 0 0 0 0 127 0" result="hardAlpha"/>

<feoffset dy="2.71658"/>

<feGaussianBlur stdDeviation="1.35829"/>

<feComposite in2="hardAlpha" operator="out"/>

<feColorMatrix type="matrix" values="0000000 0 0 0 0 0 0 0 0 0 0 0 0.25 0"/>

<feBlend mode="normal" in2="Background ImageFix" result="effect1_dropShadow_1_107"/>

<feBlend mode="normal" in="SourceGraphic" in2="effect1_dropShadow_1_107" result="shape"/>

</filter>

</defs>

</svg>