<svg width="54" height="55" viewBox="0 0 54 55" fill="none" xmlns="http://www.w3.org/2000/svg">
<path d="M52.168 37.0633L53.8335 28.725L46.0246 27.1588C46.0246 25.1073 45.6827 23.0448 45.0099 21.0484L51.4732 16.7469L46.7525 9.66594L40.565 13.791C38.7341 11.916 36.5833 10.4821 34.245 9.51152L35.8112 1.69159L27.4729 0.026123L25.8626 8.07768C24.153 8.16592 22.4434 8.48578 20.778 9.04828L16.4765 2.58497L9.3955 7.30561L13.5205 13.4932C11.6455 15.3241 10.2117 17.4748 9.24108 19.8131L2.4138 18.4454L0.737305 26.7838L7.80724 28.1956C7.91754 30.3794 8.40283 32.5632 9.28519 34.6368L3.09762 38.7619L7.81826 45.8428L14.2816 41.5413C16.1235 43.1626 18.2301 44.3759 20.4802 45.181L18.9029 53.0451L27.2413 54.7106L28.9509 46.1847C30.7818 45.9862 32.6016 45.523 34.3553 44.784L38.4804 50.9715L45.5613 46.2509L41.2598 39.7876C42.4179 38.4641 43.3665 37.0192 44.1165 35.475L52.168 37.0633ZM31.2229 33.6331C27.6494 36.0155 22.7964 35.0449 20.414 31.4713C18.0316 27.8978 19.0022 23.0448 22.5758 20.6624C26.1494 18.28 31.0024 19.2506 33.3847 22.8242C35.7671 26.4088 34.7965 31.2507 31.2229 33.6331Z" fill="#CADFF5"/>
</svg>
