<svg width="515" height="343" viewBox="0 0 515 343" fill="none" xmlns="http://www.w3.org/2000/svg">
<g clip-path="url(#clip0_500_3779)">
<path d="M226.954 86.2289C210.233 29.6474 134.89 11.4156 91.7099 53.7028C91.0922 54.3094 90.4746 54.9271 89.8459 55.5558C27.9481 118.336 57.1874 273.036 186.376 312.246C315.565 351.456 449.938 279.852 457.493 215.848C465.038 151.844 405.445 131.726 312.94 149.627C260.693 159.741 237.366 121.457 226.954 86.2289Z" fill="#CADFF5"/>
<path d="M55.3683 202.006C44.9013 187.965 29.096 190.789 25.6217 207.642C24.4746 213.212 24.7283 220.183 27.5519 228.83C38.2946 261.775 60.0779 270.896 71.1626 249.687C77.9899 236.595 65.7471 215.914 55.3683 202.006Z" fill="#CADFF5"/>
<path d="M462.258 218.782C461.619 231.3 472.891 238.536 483.645 232.26C487.196 230.186 490.593 226.657 493.24 220.933C503.343 199.094 494.432 182.792 476.729 187.05C465.81 189.675 462.898 206.385 462.258 218.782Z" fill="#CADFF5"/>
<path d="M37.9415 119.682C33.3422 126.807 24.2869 126.332 20.8567 118.623C19.7207 116.075 19.2574 112.799 20.0626 108.597C23.1509 92.593 34.4892 87.1665 42.5408 96.5085C47.5151 102.288 42.5077 112.623 37.9415 119.682Z" fill="#CADFF5"/>
<path d="M288.168 74.0633L289.833 65.725L282.025 64.1588C282.025 62.1073 281.683 60.0448 281.01 58.0484L287.473 53.7469L282.753 46.6659L276.565 50.791C274.734 48.916 272.583 47.4821 270.245 46.5115L271.811 38.6916L263.473 37.0261L261.863 45.0777C260.153 45.1659 258.443 45.4858 256.778 46.0483L252.476 39.585L245.395 44.3056L249.521 50.4932C247.646 52.3241 246.212 54.4748 245.241 56.8131L238.414 55.4454L236.737 63.7838L243.807 65.1956C243.918 67.3794 244.403 69.5632 245.285 71.6368L239.098 75.7619L243.818 82.8428L250.282 78.5413C252.124 80.1626 254.23 81.3759 256.48 82.181L254.903 90.0451L263.241 91.7106L264.951 83.1847C266.782 82.9862 268.602 82.523 270.355 81.784L274.48 87.9715L281.561 83.2509L277.26 76.7876C278.418 75.4641 279.366 74.0192 280.116 72.475L288.168 74.0633ZM267.223 70.6331C263.649 73.0155 258.796 72.0449 256.414 68.4713C254.032 64.8978 255.002 60.0448 258.576 57.6624C262.149 55.28 267.002 56.2506 269.385 59.8242C271.767 63.4088 270.797 68.2507 267.223 70.6331Z" fill="#CADFF5"/>
<path d="M246.443 25.6657L247.337 21.0995L243.068 20.2613C243.068 19.1363 242.87 18.0112 242.506 16.9193L246.024 14.548L243.432 10.6876L240.057 12.9487C239.054 11.934 237.874 11.1509 236.594 10.6215L237.432 6.342L232.866 5.44861L232.006 9.84939C231.068 9.90454 230.142 10.081 229.226 10.3898L226.866 6.87142L223.006 9.46336L225.267 12.8384C224.252 13.8421 223.469 15.0222 222.94 16.3017L219.201 15.5627L218.307 20.1289L222.179 20.89C222.245 22.0811 222.509 23.2723 222.995 24.4084L219.62 26.6694L222.212 30.5298L225.73 28.1694C226.745 29.0518 227.892 29.7136 229.127 30.1437L228.278 34.4453L232.844 35.3386L233.76 30.6732C234.763 30.5629 235.756 30.3092 236.715 29.8901L238.976 33.2651L242.837 30.6732L240.465 27.1547C241.094 26.4268 241.613 25.6327 242.021 24.7944L246.443 25.6657ZM234.984 23.8348C233.032 25.1474 230.384 24.629 229.072 22.6767C227.759 20.7245 228.278 18.0774 230.23 16.7649C232.182 15.4524 234.829 15.9708 236.142 17.923C237.454 19.8752 236.936 22.5334 234.984 23.8348Z" fill="#CADFF5"/>
<path d="M456.336 130.281L457.229 125.715L452.961 124.876C452.961 123.751 452.762 122.626 452.398 121.534L455.917 119.174L453.325 115.314L449.95 117.575C448.946 116.56 447.766 115.777 446.486 115.248L447.325 110.968L442.758 110.075L441.898 114.476C440.961 114.531 440.034 114.707 439.119 115.016L436.769 111.509L432.909 114.101L435.17 117.476C434.155 118.479 433.372 119.659 432.843 120.939L429.104 120.2L428.21 124.766L432.082 125.527C432.148 126.718 432.413 127.91 432.898 129.046L429.523 131.307L432.115 135.167L435.633 132.807C436.648 133.689 437.795 134.351 439.03 134.781L438.181 139.082L442.747 139.976L443.663 135.31C444.667 135.2 445.659 134.946 446.619 134.527L448.88 137.902L452.74 135.31L450.38 131.792C451.009 131.064 451.527 130.27 451.935 129.432L456.336 130.281ZM444.887 128.45C442.935 129.762 440.288 129.244 438.975 127.292C437.663 125.34 438.181 122.693 440.133 121.38C442.086 120.068 444.733 120.586 446.045 122.538C447.358 124.49 446.828 127.137 444.887 128.45Z" fill="#CADFF5"/>
<path d="M345.974 147.862L347.938 151.667L350.43 148.921L334.096 117.255C334.415 113.913 335.364 109.259 337.823 103.634C342.401 93.1224 345.423 81.1222 338.265 82.7105C332.055 84.0892 329.066 97.8871 330.787 110.825L324.467 98.5709C323.154 94.4459 321.279 88.5672 320.937 81.7399C320.132 65.9235 316.459 51.0998 309.312 56.03C302.154 60.9713 308.959 86.3612 322.184 101.736L325.437 108.045C315.985 96.6739 299.419 88.4017 293.937 93.3429C288.488 98.2511 300.025 102.762 311.242 105.122C319.779 106.92 324.963 110.053 327.423 111.906L342.776 141.674C327.765 123.718 301.591 110.681 292.922 118.501C284.286 126.288 302.573 133.446 320.375 137.185C333.831 139.998 342.026 144.928 345.974 147.862Z" fill="#015288"/>
<path d="M165.354 172.811L163.303 176.572L160.876 173.77L177.95 142.491C177.708 139.149 176.869 134.472 174.542 128.792C170.207 118.181 167.472 106.104 174.597 107.869C180.774 109.391 183.443 123.255 181.413 136.149L188.02 124.049C189.421 119.957 191.439 114.123 191.947 107.306C193.116 91.5121 197.142 76.7766 204.178 81.8723C211.226 86.9789 203.825 112.203 190.237 127.259L186.84 133.49C196.546 122.351 213.311 114.465 218.671 119.527C223.998 124.568 212.373 128.803 201.101 130.899C192.52 132.498 187.27 135.509 184.766 137.296L168.718 166.7C184.149 149.097 210.609 136.678 219.101 144.696C227.561 152.693 209.098 159.41 191.219 162.741C177.685 165.233 169.369 169.965 165.354 172.811Z" fill="#015288"/>
<path d="M408.732 293.915L439.053 298.581C442.935 293.628 446.133 288.477 446.001 285.058C445.681 276.477 438.38 266.429 445.792 260.848C453.203 255.268 460.946 245.209 451.792 233.848C442.637 222.499 449.895 198.19 449.895 198.19C449.895 198.19 433.924 208.348 433.836 227.473C433.747 246.609 428.806 244.801 417.876 252.676C406.946 260.551 399.732 263.738 407.332 284.639C408.457 287.75 408.865 290.871 408.732 293.915Z" fill="#015288"/>
<path d="M426.038 296.573L427.306 296.772C427.758 291.345 427.24 286.194 425.729 282.102C422.464 273.202 426.346 264.113 438.324 252.643C446.023 245.264 443.597 233.253 443.497 232.745C443.431 232.403 443.089 232.183 442.747 232.26C442.405 232.326 442.185 232.668 442.262 233.01C442.284 233.131 444.644 244.845 437.453 251.738C425.067 263.617 421.085 273.113 424.549 282.544C425.96 286.371 426.457 291.356 426.038 296.573Z" fill="#01305A"/>
<path d="M456.502 326.011H424.67C424.659 325.978 424.648 325.945 424.648 325.912C423.755 322.735 423.248 319.459 423.137 316.162C422.762 305.022 422.564 277.04 429.777 269.871C438.832 260.859 456.976 257.341 454.582 243.753C452.189 230.164 453.976 211.348 475.461 208.293C496.947 205.238 513.723 171.432 513.723 171.432C513.723 171.432 520.793 198.697 501.458 219.587C482.134 240.488 489.325 243.543 493.23 263.209C497.123 282.874 501.734 293.661 472.241 308.695C464.233 312.753 459.358 319.029 456.502 326.011Z" fill="#3B73A9"/>
<path d="M472.88 242.297C474.292 267.797 468.976 282.169 455.63 288.908C447.248 293.143 438.446 302.584 432.645 313.548C430.814 317.011 428.95 321.213 427.505 326.011H425.542C427.053 320.849 429.027 316.349 430.979 312.665C437.034 301.206 445.935 291.698 454.781 287.231C467.365 280.867 472.373 267.047 471.005 242.396C470.123 226.547 484.958 215.947 485.586 215.506C486.005 215.208 486.59 215.308 486.899 215.738C487.197 216.157 487.097 216.741 486.667 217.05C486.524 217.149 472.064 227.506 472.88 242.297Z" fill="#015288"/>
<path d="M82.9972 213.719L109.303 197.947C109.126 191.66 108.299 185.66 106.016 183.101C100.292 176.704 88.2583 173.627 90.398 164.605C92.5377 155.583 92.0745 142.888 77.7802 139.998C63.4859 137.108 53.5483 113.77 53.5483 113.77C53.5483 113.77 47.7358 131.781 59.8903 146.561C72.0449 161.34 67.0926 163.105 63.7065 176.142C60.3205 189.179 56.8131 196.238 76.0045 207.477C78.8501 209.153 81.1553 211.293 82.9972 213.719Z" fill="#015288"/>
<path d="M98.0197 204.719L99.1227 204.057C96.0013 199.59 92.3064 195.962 88.5453 193.778C80.3504 189.024 77.5379 179.55 79.4129 163.061C80.6261 152.461 71.0856 144.774 70.6775 144.443C70.4018 144.222 70.0047 144.277 69.7951 144.542C69.5745 144.818 69.6297 145.215 69.8944 145.424C69.9937 145.502 79.2916 153.013 78.1555 162.906C76.2033 179.958 79.2143 189.807 87.9056 194.848C91.4351 196.91 94.9976 200.429 98.0197 204.719Z" fill="#01305A"/>
<path d="M94.4239 262.36L125.229 254.319C125.229 254.286 125.229 254.253 125.229 254.22C125.296 250.922 124.954 247.624 124.226 244.403C121.777 233.528 114.884 206.407 106.104 201.289C95.0636 194.859 76.6222 196.039 75.4972 182.285C74.3832 168.531 67.8868 150.774 46.3241 153.244C24.7834 155.715 0 127.248 0 127.248C0 127.248 0.0551489 155.406 24.0334 170.748C48.0116 186.079 41.824 190.855 43.0152 210.874C44.2174 230.881 42.4858 242.484 74.8133 249.576C83.5818 251.495 89.8907 256.337 94.4239 262.36Z" fill="#3B73A9"/>
<path d="M57.4201 185.506C62.4937 210.532 71.2732 223.094 85.8873 226.238C95.0639 228.223 105.972 235.128 114.355 244.271C117.002 247.161 119.858 250.756 122.472 255.036L124.369 254.54C121.612 249.929 118.557 246.069 115.733 243.003C106.976 233.451 95.9683 226.491 86.2734 224.407C72.4865 221.44 64.1481 209.318 59.251 185.131C56.0966 169.568 39.067 163.061 38.35 162.796C37.8647 162.619 37.3243 162.862 37.1478 163.347C36.9714 163.833 37.214 164.373 37.6993 164.55C37.8647 164.616 54.4752 170.98 57.4201 185.506Z" fill="#015288"/>
<path d="M378.975 326.077C379.173 322.857 379.35 319.801 379.515 316.967C380.199 305.375 380.64 297.456 380.64 297.456L376.096 297.257L373.537 297.147L342.665 295.779C342.665 295.779 342.103 304.636 341.441 317.629C341.309 320.287 341.165 323.121 341.022 326.088H378.975V326.077Z" fill="#01305A"/>
<path d="M376.096 297.246L380.64 297.444C380.64 297.444 380.199 305.364 379.515 316.956C367.647 317.948 354.699 318.345 341.43 317.606C342.092 304.603 342.654 295.757 342.654 295.757L373.526 297.125L376.096 297.246Z" fill="#001336"/>
<path d="M374.475 326.077C375.192 313.691 375.776 303.081 376.096 297.257L373.537 297.147C373.217 303.003 372.622 313.658 371.905 326.088H374.475V326.077Z" fill="#001336"/>
<path d="M388.923 326.077H426.875C426.732 323.11 426.6 320.276 426.456 317.617C425.795 304.614 425.232 295.768 425.232 295.768L394.36 297.136L391.802 297.246L387.257 297.444C387.257 297.444 387.699 305.364 388.382 316.956C388.548 319.801 388.735 322.856 388.923 326.077Z" fill="#01305A"/>
<path d="M391.802 297.246L387.257 297.444C387.257 297.444 387.699 305.364 388.382 316.956C400.25 317.948 413.199 318.345 426.467 317.606C425.806 304.603 425.243 295.757 425.243 295.757L394.371 297.125L391.802 297.246Z" fill="#001336"/>
<path d="M395.993 326.077C395.276 313.647 394.68 302.992 394.361 297.136L391.802 297.246C392.122 303.07 392.706 313.68 393.423 326.066H395.993V326.077Z" fill="#001336"/>
<path d="M430.923 307.967C399.015 314.441 367.823 313.349 336.433 306.875C336.455 269.749 336.058 250.194 336.147 240.786C336.158 239.517 336.169 238.26 336.191 236.992C336.202 236.407 336.202 235.822 336.202 235.227C336.213 234.344 336.224 233.462 336.235 232.569C336.235 232.326 336.235 232.072 336.246 231.819C336.257 231.532 336.257 231.245 336.257 230.958C336.257 230.903 336.257 230.837 336.257 230.782C336.257 230.087 336.268 229.381 336.279 228.697C336.29 228.146 336.29 227.605 336.301 227.065C336.301 226.602 336.312 226.139 336.323 225.675C336.334 224.914 336.345 224.142 336.356 223.381C336.356 223.194 336.356 222.995 336.367 222.808C336.389 221.506 336.411 220.227 336.433 218.936V218.815C336.455 217.425 336.478 216.047 336.511 214.668C336.61 209.462 336.72 204.344 336.841 199.414C336.864 198.355 336.897 197.307 336.93 196.282C337.547 174.101 338.54 156.079 340.084 150.465C340.272 149.781 340.47 149.274 340.669 148.976C340.889 148.645 341.154 148.314 341.463 147.961C341.849 147.531 342.279 147.079 342.786 146.627C346.184 143.494 349.536 140.968 355.526 137.516C356.22 137.108 359.419 135.52 360.158 135.211C366.434 132.575 376.415 129.707 376.515 129.641L393.401 130.821C395.43 132.012 411.412 137.439 413.375 138.663C413.949 139.027 414.522 139.391 415.085 139.744C419.684 142.711 423.589 145.656 425.287 148.149C426.556 150.013 427.57 159.586 428.376 173.274C428.409 173.947 428.453 174.631 428.486 175.325C429.104 186.542 429.589 200.241 429.975 214.635C430.008 216.058 430.041 217.469 430.085 218.903C430.085 219.08 430.096 219.267 430.096 219.444C430.118 220.26 430.129 221.076 430.162 221.881C430.173 222.179 430.173 222.477 430.184 222.775C430.218 224.186 430.251 225.62 430.273 227.032C430.306 228.333 430.328 229.635 430.35 230.936C430.361 231.664 430.383 232.381 430.394 233.109C430.405 233.804 430.427 234.51 430.438 235.205C430.493 238.205 430.548 241.205 430.593 244.172C430.692 250.172 430.78 256.073 430.857 261.764C430.868 262.415 430.868 263.054 430.879 263.694C430.89 265.172 430.901 278.01 430.923 307.967Z" fill="#FD7C78"/>
<path d="M428.475 175.359L420.269 172.48C419.773 172.303 419.519 171.763 419.685 171.267C419.861 170.77 420.402 170.517 420.898 170.682L428.365 173.307C428.398 173.98 428.442 174.664 428.475 175.359Z" fill="#D64E5A"/>
<path d="M343.515 191.098L336.842 199.403C336.864 198.344 336.897 197.296 336.93 196.271L342.037 189.907C342.368 189.498 342.963 189.432 343.371 189.763C343.779 190.094 343.846 190.69 343.515 191.098Z" fill="#D64E5A"/>
<path d="M413.938 278.165C396.952 278.088 382.448 270.356 373.272 263.893C363.356 256.889 357.345 249.797 357.279 249.731C356.992 249.389 357.036 248.87 357.378 248.584C357.72 248.297 358.239 248.341 358.525 248.683C358.581 248.749 364.481 255.709 374.242 262.591C383.22 268.911 397.382 276.466 413.927 276.543C414.379 276.543 414.743 276.918 414.743 277.36C414.754 277.801 414.39 278.165 413.938 278.165Z" fill="#D64E5A"/>
<path d="M396.236 283.933C381.489 283.933 366.798 275.529 366.125 275.143C365.739 274.911 365.596 274.415 365.827 274.029C366.048 273.643 366.555 273.51 366.941 273.731C367.118 273.83 384.412 283.713 399.743 282.124C400.195 282.069 400.592 282.4 400.637 282.852C400.681 283.305 400.361 283.702 399.909 283.746C398.695 283.878 397.46 283.933 396.236 283.933Z" fill="#D64E5A"/>
<path d="M336.434 218.815V218.925H430.074C430.041 217.502 429.997 216.08 429.964 214.657H336.511C336.478 216.035 336.456 217.425 336.434 218.815Z" fill="#D64E5A"/>
<path d="M336.312 227.065H430.262C430.229 225.642 430.196 224.219 430.174 222.797H336.379C336.379 222.984 336.379 223.183 336.368 223.37C336.357 224.131 336.346 224.903 336.335 225.664C336.324 226.127 336.312 226.591 336.312 227.065Z" fill="#D64E5A"/>
<path d="M336.202 235.227H430.427C430.416 234.532 430.394 233.826 430.383 233.131C430.372 232.403 430.35 231.686 430.339 230.958H336.246C336.246 231.245 336.246 231.532 336.235 231.819C336.235 232.061 336.235 232.315 336.224 232.569C336.224 233.462 336.213 234.345 336.202 235.227Z" fill="#D64E5A"/>
<path d="M389.32 166.369C389.728 166.369 390.103 166.072 390.18 165.653C390.268 165.178 389.96 164.715 389.485 164.627C367.25 160.402 360.544 146.097 360.478 145.954C360.279 145.513 359.761 145.314 359.32 145.513C358.878 145.711 358.68 146.23 358.878 146.671C359.154 147.288 366.025 161.958 389.154 166.336C389.21 166.369 389.265 166.369 389.32 166.369Z" fill="#D64E5A"/>
<path d="M359.828 78.3538C359.828 78.3538 358.173 68.2287 360.633 64.7875C363.092 61.3463 367.096 62.372 371.387 58.4124C375.677 54.4528 388.714 58.2359 394.427 57.2102C397.571 56.6367 400.913 57.0668 403.99 56.4381C408.391 55.5447 410.74 59.9124 409.681 64.214C409.008 66.9493 407.63 71.0633 403.67 72.1332C403.67 72.1332 365.706 65.2066 359.828 78.3538Z" fill="#01305A"/>
<path d="M358.967 86.4385C358.967 101.097 367.989 111.211 382.659 111.211C397.317 111.211 407.541 100.347 407.541 85.6774C407.541 71.0192 398.861 59.9014 384.192 59.9014C366.611 59.9014 358.967 71.7692 358.967 86.4385Z" fill="#01305A"/>
<path d="M362.265 92.7474C362.265 92.7474 358.195 87.3098 355.162 91.8099C352.129 96.2989 356.419 109.567 363.831 106.325L362.265 92.7474Z" fill="#FB9E82"/>
<path d="M362.21 102.233C361.934 102.233 361.68 102.056 361.603 101.769C360.456 97.6775 356.21 96.0121 356.166 96.001C355.846 95.8797 355.68 95.5157 355.802 95.1959C355.923 94.876 356.287 94.7106 356.607 94.8319C356.805 94.9091 361.482 96.718 362.805 101.439C362.894 101.769 362.706 102.122 362.375 102.211C362.32 102.222 362.265 102.233 362.21 102.233Z" fill="#FC7972"/>
<path d="M357.919 100.17C357.798 100.17 357.688 100.137 357.577 100.071C357.291 99.8835 357.202 99.4975 357.39 99.1997C357.423 99.1555 358.173 98.0085 359.739 97.3026C360.048 97.1592 360.423 97.3026 360.566 97.6224C360.71 97.9423 360.566 98.3063 360.247 98.4497C359.033 98.9901 358.438 99.8725 358.438 99.8835C358.327 100.071 358.129 100.17 357.919 100.17Z" fill="#FC7972"/>
<path d="M404.243 92.7474C404.243 92.7474 408.313 87.3098 411.346 91.8099C414.379 96.2989 410.089 109.567 402.677 106.325L404.243 92.7474Z" fill="#FB9E82"/>
<path d="M404.298 102.233C404.574 102.233 404.827 102.056 404.905 101.769C406.052 97.6775 410.298 96.0121 410.342 96.001C410.662 95.8797 410.828 95.5157 410.706 95.1959C410.585 94.876 410.221 94.7106 409.901 94.8319C409.703 94.9091 405.026 96.718 403.702 101.439C403.614 101.769 403.802 102.122 404.133 102.211C404.188 102.222 404.243 102.233 404.298 102.233Z" fill="#FC7972"/>
<path d="M408.578 100.17C408.699 100.17 408.809 100.137 408.92 100.071C409.206 99.8835 409.295 99.4975 409.107 99.1997C409.074 99.1555 408.324 98.0085 406.758 97.3026C406.449 97.1592 406.074 97.3026 405.931 97.6224C405.787 97.9423 405.931 98.3063 406.25 98.4497C407.464 98.9901 408.059 99.8725 408.059 99.8835C408.17 100.071 408.379 100.17 408.578 100.17Z" fill="#FC7972"/>
<path d="M393.28 117.586V130.777C393.28 130.777 389.342 137.494 384.026 137.957C378.71 138.421 373.989 132.167 373.989 132.167V118.512L393.28 117.586Z" fill="#FDBEAB"/>
<path d="M393.28 117.586V123.442C389.706 127.402 383.364 128.395 373.989 127.005V118.512L393.28 117.586Z" fill="#FB9E82"/>
<path d="M360.092 92.5047C360.147 93.2657 360.213 94.0378 360.291 94.8209C360.489 96.7841 360.754 98.8026 361.118 100.81C361.129 100.887 361.14 100.953 361.151 101.008C362.927 110.737 366.908 120.299 375.489 123.365C394.934 130.303 401.872 113.637 404.651 103.92C404.96 102.839 405.236 101.637 405.479 100.358C405.49 100.314 405.501 100.258 405.512 100.192C405.776 98.7584 406.019 97.2253 406.218 95.6371C406.361 94.4679 406.493 93.2768 406.604 92.0856C406.89 89.1848 407.067 86.273 407.188 83.6811C407.475 77.7692 403.934 72.3427 398.398 70.214C390.423 67.1478 378.313 64.7213 366.842 71.2287C362.607 73.6332 359.949 78.0781 359.849 82.9531C359.805 85.6553 359.838 88.9532 360.092 92.5047Z" fill="#FDBEAB"/>
<path d="M375.026 93.5305C375.026 94.9422 374.298 96.0783 373.405 96.0783C372.511 96.0783 371.783 94.9422 371.783 93.5305C371.783 92.1187 372.511 90.9826 373.405 90.9826C374.298 90.9716 375.026 92.1187 375.026 93.5305Z" fill="#01305A"/>
<path d="M394.427 93.5305C394.427 94.9422 393.699 96.0783 392.805 96.0783C391.912 96.0783 391.184 94.9422 391.184 93.5305C391.184 92.1187 391.912 90.9826 392.805 90.9826C393.699 90.9716 394.427 92.1187 394.427 93.5305Z" fill="#01305A"/>
<path d="M398.221 85.1149C398.221 85.1149 393.104 83.0965 389.166 84.7951L389.563 86.9899C389.563 86.9899 395.343 86.5046 398.254 87.6848C398.519 86.8355 398.552 85.9862 398.221 85.1149Z" fill="#01305A"/>
<path d="M367.89 85.1149C367.89 85.1149 373.008 83.0965 376.945 84.7951L376.548 86.9899C376.548 86.9899 370.769 86.5046 367.857 87.6848C367.592 86.8355 367.548 85.9862 367.89 85.1149Z" fill="#01305A"/>
<path d="M383.894 104.582C382.846 104.714 381.755 104.428 381.589 104.384C381.258 104.295 381.06 103.953 381.148 103.612C381.236 103.281 381.578 103.082 381.92 103.17C382.505 103.325 383.905 103.523 384.446 103.104C384.545 103.027 384.688 102.873 384.677 102.486C384.633 100.292 383.155 93.0783 383.133 93.0011C383.067 92.6592 383.277 92.3283 383.619 92.2621C383.96 92.1959 384.291 92.4055 384.358 92.7474C384.424 93.0452 385.88 100.148 385.924 102.464C385.935 103.336 385.538 103.832 385.207 104.097C384.832 104.384 384.369 104.527 383.894 104.582Z" fill="#FB9E82"/>
<path d="M375.324 108.343C375.831 110.924 377.541 115.667 383.276 115.667C389.022 115.667 390.633 111.332 391.195 108.343H375.324Z" fill="white"/>
<path d="M406.527 92.8577H403.681C403.99 90.001 402.964 86.5598 402.104 84.2657C400.163 79.0597 404.299 76.7656 400.957 74.1516C397.615 71.5376 389.298 72.6626 383.519 72.4751C377.706 72.2876 368.353 72.3648 366.081 72.8942C363.809 73.4126 365.056 77.1957 365.883 80.1186C366.721 83.0414 363.092 86.273 362.486 89.3062C362.309 90.1775 362.342 91.4679 362.486 92.8687H360.114C359.839 89.1848 359.794 85.7547 359.839 82.9752C359.938 78.1002 362.585 73.6552 366.831 71.2508C378.302 64.7434 390.412 67.1699 398.387 70.2361C403.924 72.3648 407.464 77.7913 407.177 83.7032C407.056 86.5047 406.846 89.7032 406.527 92.8577Z" fill="#01305A"/>
<path d="M340.669 148.976L298.625 208.447L307.834 232.414L336.919 196.392C336.93 196.381 342.456 171.465 340.669 148.976Z" fill="#FD7C78"/>
<path d="M478.615 181.182C476.685 184.612 471.953 185.373 466.063 184.645C462.435 184.193 458.354 183.179 454.229 181.877C440.243 177.476 425.739 172.37 425.739 172.37L412.857 138.41C412.857 138.41 426.964 144.917 445.934 153.244C448.548 154.391 451.107 155.494 453.545 156.52C455.155 157.204 456.721 157.855 458.199 158.461C458.828 158.715 459.446 158.969 460.041 159.2C460.041 159.2 460.096 158.969 460.196 158.539C460.736 156.277 462.589 148.513 464.806 138.741C467.674 126.112 470.078 106.634 470.078 106.634L480.733 109.457C480.744 109.468 485.762 168.443 478.615 181.182Z" fill="#FD7C78"/>
<path d="M461.564 166.392C461.068 166.546 460.538 166.248 460.384 165.752L458.211 158.461C458.84 158.715 459.457 158.969 460.053 159.2C460.053 159.2 460.108 158.969 460.207 158.539L462.193 165.2C462.347 165.708 462.06 166.237 461.564 166.392Z" fill="#D64E5A"/>
<path d="M475.858 111.089C472.527 111.707 469.042 110.737 466.649 108.343C465.832 107.527 465.093 106.523 464.663 105.31C463.141 101.064 458.498 92.3172 462.568 89.8466C464.057 88.9422 464.288 93.7731 467.41 96.2548C467.41 96.2548 470.222 91.3466 471.612 87.3429C472.836 83.8135 475.924 77.3281 477.38 74.3391C477.777 73.5229 479.024 73.7104 479.079 74.6148C479.178 76.0707 478.737 78.6406 476.774 83.1737C476.774 83.1737 482.068 72.4751 484.23 72.5523C486.391 72.6185 479.531 85.876 479.531 85.876C479.531 85.876 485.862 76.3244 487.472 77.1296C488.454 77.6149 483.314 88.5562 483.314 88.5562C483.314 88.5562 490.042 80.0744 489.833 83.1517C489.766 84.0451 480.204 99.5416 480.744 109.468C480.744 109.479 478.693 110.56 475.858 111.089Z" fill="#FDBEAB"/>
<path d="M468.976 334.063V334.824C468.976 339.235 465.402 342.809 460.979 342.809H46.4234C42.0116 342.809 38.438 339.235 38.438 334.824V334.063C38.438 329.651 42.0116 326.077 46.4234 326.077H460.979C465.391 326.077 468.976 329.651 468.976 334.063Z" fill="#015288"/>
<path d="M468.976 334.063V334.449H38.4268V334.063C38.4268 329.651 42.0003 326.077 46.4121 326.077H460.968C465.391 326.077 468.976 329.651 468.976 334.063Z" fill="#3B73A9"/>
<path d="M422.244 18.5296C418.372 18.5296 415.218 15.3752 415.218 11.5038C415.218 7.63244 418.372 4.478 422.244 4.478C426.115 4.478 429.269 7.63244 429.269 11.5038C429.269 15.3752 426.115 18.5296 422.244 18.5296ZM422.244 6.67287C419.585 6.67287 417.424 8.83466 417.424 11.4928C417.424 14.1509 419.585 16.3127 422.244 16.3127C424.902 16.3127 427.064 14.1509 427.064 11.4928C427.064 8.84569 424.902 6.67287 422.244 6.67287Z" fill="#3B73A9"/>
<path d="M447.545 43.1916C443.674 43.1916 440.52 40.0372 440.52 36.1658C440.52 32.2945 443.674 29.14 447.545 29.14C451.417 29.14 454.571 32.2945 454.571 36.1658C454.571 40.0372 451.428 43.1916 447.545 43.1916ZM447.545 31.3349C444.887 31.3349 442.725 33.4967 442.725 36.1548C442.725 38.8129 444.887 40.9747 447.545 40.9747C450.203 40.9747 452.365 38.8129 452.365 36.1548C452.376 33.5077 450.203 31.3349 447.545 31.3349Z" fill="#FD7C78"/>
<path d="M456.236 66.0339C455.63 66.0339 455.133 65.5375 455.133 64.9309V60.0669C455.133 59.4603 455.63 58.9639 456.236 58.9639C456.843 58.9639 457.339 59.4603 457.339 60.0669V64.9309C457.339 65.5375 456.843 66.0339 456.236 66.0339Z" fill="#3B73A9"/>
<path d="M456.236 74.5487C455.63 74.5487 455.133 74.0524 455.133 73.4457V68.5817C455.133 67.9751 455.63 67.4788 456.236 67.4788C456.843 67.4788 457.339 67.9751 457.339 68.5817V73.4457C457.339 74.0524 456.843 74.5487 456.236 74.5487Z" fill="#3B73A9"/>
<path d="M463.053 67.8537H458.685C458.078 67.8537 457.582 67.3574 457.582 66.7508C457.582 66.1442 458.078 65.6478 458.685 65.6478H463.053C463.659 65.6478 464.156 66.1442 464.156 66.7508C464.156 67.3684 463.67 67.8537 463.053 67.8537Z" fill="#3B73A9"/>
<path d="M453.777 67.8537H449.409C448.802 67.8537 448.306 67.3574 448.306 66.7508C448.306 66.1442 448.802 65.6478 449.409 65.6478H453.777C454.383 65.6478 454.88 66.1442 454.88 66.7508C454.88 67.3684 454.383 67.8537 453.777 67.8537Z" fill="#3B73A9"/>
<path d="M417.413 38.7909C416.806 38.7909 416.31 38.2945 416.31 37.6879V32.8239C416.31 32.2173 416.806 31.7209 417.413 31.7209C418.019 31.7209 418.515 32.2173 418.515 32.8239V37.6879C418.515 38.2945 418.03 38.7909 417.413 38.7909Z" fill="#015288"/>
<path d="M417.413 47.2947C416.806 47.2947 416.31 46.7983 416.31 46.1917V41.3277C416.31 40.7211 416.806 40.2247 417.413 40.2247C418.019 40.2247 418.515 40.7211 418.515 41.3277V46.1917C418.515 46.7983 418.03 47.2947 417.413 47.2947Z" fill="#015288"/>
<path d="M424.24 40.6108H419.872C419.266 40.6108 418.77 40.1144 418.77 39.5078C418.77 38.9012 419.266 38.4048 419.872 38.4048H424.24C424.847 38.4048 425.343 38.9012 425.343 39.5078C425.343 40.1144 424.847 40.6108 424.24 40.6108Z" fill="#015288"/>
<path d="M414.964 40.6108H410.597C409.99 40.6108 409.494 40.1144 409.494 39.5078C409.494 38.9012 409.99 38.4048 410.597 38.4048H414.964C415.571 38.4048 416.067 38.9012 416.067 39.5078C416.067 40.1144 415.571 40.6108 414.964 40.6108Z" fill="#015288"/>
<path d="M86.813 7.78683C86.813 3.91546 89.9674 0.761017 93.8388 0.761017C97.7102 0.761017 100.865 3.91546 100.865 7.78683C100.865 11.6582 97.7102 14.8126 93.8388 14.8126C89.9674 14.8126 86.813 11.6692 86.813 7.78683ZM89.0189 7.78683C89.0189 10.4449 91.1807 12.6067 93.8388 12.6067C96.4969 12.6067 98.6587 10.4449 98.6587 7.78683C98.6587 5.12871 96.4969 2.96692 93.8388 2.96692C91.1917 2.96692 89.0189 5.12871 89.0189 7.78683Z" fill="#3B73A9"/>
<path d="M58.5889 34.5776C58.5889 30.7062 61.7433 27.5518 65.6147 27.5518C69.4861 27.5518 72.6405 30.7062 72.6405 34.5776C72.6405 38.4489 69.4861 41.6034 65.6147 41.6034C61.7433 41.6144 58.5889 38.46 58.5889 34.5776ZM60.7948 34.5776C60.7948 37.2357 62.9566 39.3975 65.6147 39.3975C68.2728 39.3975 70.4346 37.2357 70.4346 34.5776C70.4346 31.9195 68.2728 29.7577 65.6147 29.7577C62.9566 29.7577 60.7948 31.9195 60.7948 34.5776Z" fill="#FD7C78"/>
<path d="M43.975 44.449C44.5816 44.449 45.078 43.9527 45.078 43.3461V38.482C45.078 37.8754 44.5816 37.3791 43.975 37.3791C43.3684 37.3791 42.8721 37.8754 42.8721 38.482V43.3461C42.8721 43.9527 43.3684 44.449 43.975 44.449Z" fill="#3B73A9"/>
<path d="M43.975 52.9529C44.5816 52.9529 45.078 52.4565 45.078 51.8499V46.9859C45.078 46.3793 44.5816 45.8829 43.975 45.8829C43.3684 45.8829 42.8721 46.3793 42.8721 46.9859V51.8499C42.8721 52.4676 43.3684 52.9529 43.975 52.9529Z" fill="#3B73A9"/>
<path d="M37.1479 46.2689H41.5156C42.1222 46.2689 42.6185 45.7726 42.6185 45.1659C42.6185 44.5593 42.1222 44.063 41.5156 44.063H37.1479C36.5413 44.063 36.0449 44.5593 36.0449 45.1659C36.0449 45.7726 36.5413 46.2689 37.1479 46.2689Z" fill="#3B73A9"/>
<path d="M46.434 46.2689H50.8017C51.4083 46.2689 51.9047 45.7726 51.9047 45.1659C51.9047 44.5593 51.4083 44.063 50.8017 44.063H46.434C45.8274 44.063 45.3311 44.5593 45.3311 45.1659C45.3311 45.7726 45.8274 46.2689 46.434 46.2689Z" fill="#3B73A9"/>
<path d="M69.3759 7.06993C69.9825 7.06993 70.4789 6.5736 70.4789 5.96698V1.10295C70.4789 0.496329 69.9825 0 69.3759 0C68.7693 0 68.2729 0.496329 68.2729 1.10295V5.96698C68.284 6.5736 68.7693 7.06993 69.3759 7.06993Z" fill="#015288"/>
<path d="M69.3759 15.5737C69.9825 15.5737 70.4789 15.0773 70.4789 14.4707V9.61772C70.4789 9.0111 69.9825 8.51477 69.3759 8.51477C68.7693 8.51477 68.2729 9.0111 68.2729 9.61772V14.4817C68.284 15.0884 68.7693 15.5737 69.3759 15.5737Z" fill="#015288"/>
<path d="M62.5595 8.88981H66.9272C67.5338 8.88981 68.0301 8.39348 68.0301 7.78685C68.0301 7.18023 67.5338 6.6839 66.9272 6.6839H62.5595C61.9529 6.6839 61.4565 7.18023 61.4565 7.78685C61.4565 8.39348 61.9418 8.88981 62.5595 8.88981Z" fill="#015288"/>
<path d="M71.8359 8.88981H76.2036C76.8102 8.88981 77.3065 8.39348 77.3065 7.78685C77.3065 7.18023 76.8102 6.6839 76.2036 6.6839H71.8359C71.2292 6.6839 70.7329 7.18023 70.7329 7.78685C70.7329 8.39348 71.2292 8.88981 71.8359 8.88981Z" fill="#015288"/>
<path d="M300.808 288.125C300.786 288.61 300.753 289.283 300.709 290.176C300.477 294.841 299.915 305.441 299.65 326.066H206.583C206.594 307.117 206.616 296.474 206.627 290.672C206.638 287.617 206.649 285.919 206.66 285.058C206.66 284.816 206.66 284.562 206.671 284.319C206.682 282.985 206.704 281.65 206.726 280.305C206.77 277.459 206.815 274.624 206.859 271.823C207.454 237.565 208.668 206.583 211.083 203.043C214.127 198.543 225.488 192.322 234.918 187.138C235.127 187.028 235.348 186.906 235.558 186.785C235.833 186.631 236.12 186.476 236.385 186.333C237.256 185.848 238.105 185.373 238.933 184.921C242.407 182.991 245.319 181.281 247.028 180.013C247.58 180.962 249.896 186.201 254.131 186.587C258.775 187.028 262.911 181.171 262.911 181.171V180.057C264.819 181.491 267.984 183.377 271.624 185.484C272.429 185.958 273.257 186.432 274.095 186.917C274.315 187.05 274.547 187.182 274.768 187.315C275.694 187.855 276.643 188.418 277.602 188.969C285.202 193.414 293.088 198.344 295.724 202.226C298.426 206.208 299.959 245.054 300.775 284.242C300.786 284.926 300.808 285.61 300.819 286.294C300.83 286.669 300.83 287.033 300.841 287.408C300.819 287.573 300.819 287.816 300.808 288.125Z" fill="#3B73A9"/>
<path d="M214.469 271.448C211.877 275.518 208.359 282.224 206.627 290.672C206.638 287.617 206.649 285.919 206.66 285.058C206.66 284.816 206.66 284.562 206.671 284.319C207.366 282.158 208.138 280.194 208.899 278.474C210.333 275.275 211.844 272.617 213.145 270.599C213.256 270.422 213.443 270.301 213.642 270.257C214.337 270.102 214.855 270.863 214.469 271.448Z" fill="#015288"/>
<path d="M300.808 288.125C300.786 288.61 300.753 289.283 300.709 290.176C298.944 281.959 295.514 275.441 292.977 271.459C292.602 270.863 293.12 270.113 293.804 270.257C294.014 270.301 294.19 270.422 294.3 270.599C295.602 272.617 297.113 275.275 298.536 278.474C299.297 280.172 300.058 282.102 300.742 284.242C300.753 284.926 300.775 285.61 300.786 286.294C300.797 286.79 300.797 287.397 300.808 288.125Z" fill="#015288"/>
<path d="M224.55 205.403C224.55 205.403 208.347 186.509 219.62 173.12C230.892 159.741 257.716 160.943 266.539 162.311C275.363 163.678 301.216 179.053 282.731 200.859C264.234 222.653 224.55 205.403 224.55 205.403Z" fill="#3B73A9"/>
<path d="M227.826 277.812C235.381 283.724 245.528 288.852 258.918 290.727C259.436 290.805 259.9 290.386 259.889 289.867C259.889 289.856 259.889 289.856 259.889 289.845C259.878 289.426 259.569 289.084 259.161 289.029C246.113 287.198 236.23 282.202 228.873 276.444C228.322 276.014 227.528 276.4 227.517 277.106C227.517 277.117 227.517 277.117 227.517 277.128C227.506 277.393 227.616 277.646 227.826 277.812Z" fill="#015288"/>
<path d="M231.344 266.948V266.981C231.344 267.113 231.377 267.257 231.444 267.367C231.885 268.128 232.381 268.922 232.955 269.738C236.087 274.205 242.01 280.117 252.444 282.941C252.51 282.963 252.576 282.963 252.642 282.963C252.984 282.963 253.304 282.731 253.392 282.389C253.503 281.981 253.26 281.551 252.841 281.441C241.613 278.408 235.734 271.624 232.789 266.551C232.392 265.856 231.333 266.143 231.344 266.948Z" fill="#015288"/>
<path d="M265.128 200.892C261.676 204.289 255.83 209.153 247.878 212.616C247.591 212.738 247.403 213.024 247.403 213.333C247.403 213.896 247.977 214.282 248.495 214.061C252.896 212.153 256.569 209.881 259.414 207.807C262.249 205.745 264.521 203.704 266.231 202.017C266.385 201.874 266.462 201.664 266.462 201.454C266.473 200.749 265.624 200.396 265.128 200.892Z" fill="#015288"/>
<path d="M242.55 273.312C242.175 273.312 241.877 273.014 241.866 272.639C241.138 239.738 241.855 206.396 241.866 206.065C241.877 205.69 242.175 205.392 242.55 205.392H242.561C242.936 205.403 243.234 205.712 243.234 206.087C243.223 206.418 242.506 239.727 243.234 272.595C243.245 272.97 242.947 273.29 242.561 273.29C242.55 273.312 242.55 273.312 242.55 273.312Z" fill="white"/>
<path d="M268.425 273.312H268.414C268.039 273.301 267.742 272.992 267.742 272.617C268.469 239.738 267.753 206.44 267.742 206.109C267.73 205.734 268.028 205.414 268.414 205.414H268.425C268.8 205.414 269.098 205.712 269.109 206.087C269.12 206.418 269.837 239.749 269.109 272.661C269.098 273.014 268.789 273.312 268.425 273.312Z" fill="white"/>
<path d="M278.992 139.369C278.992 153.796 270.113 163.745 255.676 163.745C241.249 163.745 231.19 153.057 231.19 138.619C231.19 124.193 239.738 113.262 254.164 113.262C271.47 113.262 278.992 124.943 278.992 139.369Z" fill="#01305A"/>
<path d="M233.075 148.855C233.075 148.855 227.748 147.41 225.917 141.123C224.097 134.836 228.333 138.024 229.061 132.553C229.789 127.082 223.656 123.012 229.061 120.365C234.465 117.729 231.2 112.027 235.965 109.06C240.73 106.093 247.701 111.564 252.256 107.009C256.811 102.453 266.043 103.589 268.668 107.009C271.293 110.428 272.44 109.6 277.348 110.516C282.256 111.431 284.528 119.406 282.135 123.09C279.741 126.773 281.407 129.244 283.701 131.527C285.995 133.81 284.396 149.461 276.532 147.277C268.668 145.094 233.075 148.855 233.075 148.855Z" fill="#01305A"/>
<path d="M275.749 145.579C275.749 145.579 279.753 140.229 282.742 144.652C285.72 149.075 281.507 162.123 274.205 158.936L275.749 145.579Z" fill="#FB9E82"/>
<path d="M275.794 154.91C276.058 154.91 276.312 154.733 276.389 154.458C277.525 150.432 281.694 148.788 281.739 148.777C282.058 148.656 282.213 148.303 282.091 147.983C281.97 147.663 281.617 147.509 281.297 147.619C281.099 147.696 276.5 149.483 275.198 154.116C275.11 154.447 275.297 154.788 275.628 154.877C275.683 154.899 275.738 154.91 275.794 154.91Z" fill="#FC7972"/>
<path d="M280.018 152.88C280.128 152.88 280.249 152.847 280.348 152.781C280.635 152.594 280.712 152.219 280.536 151.932C280.503 151.888 279.764 150.763 278.22 150.068C277.911 149.924 277.547 150.068 277.403 150.377C277.26 150.685 277.403 151.049 277.712 151.193C278.904 151.733 279.488 152.594 279.499 152.605C279.609 152.781 279.808 152.88 280.018 152.88Z" fill="#FC7972"/>
<path d="M234.432 145.579C234.432 145.579 230.429 140.229 227.44 144.652C224.462 149.075 228.675 162.123 235.976 158.936L234.432 145.579Z" fill="#FB9E82"/>
<path d="M234.377 154.91C234.113 154.91 233.859 154.733 233.782 154.458C232.646 150.432 228.476 148.788 228.432 148.777C228.112 148.656 227.958 148.303 228.079 147.983C228.201 147.663 228.554 147.509 228.874 147.619C229.072 147.696 233.671 149.483 234.973 154.116C235.061 154.447 234.874 154.788 234.543 154.877C234.488 154.899 234.432 154.91 234.377 154.91Z" fill="#FC7972"/>
<path d="M230.164 152.88C230.054 152.88 229.933 152.847 229.833 152.781C229.547 152.594 229.469 152.219 229.646 151.932C229.679 151.888 230.418 150.763 231.962 150.068C232.271 149.924 232.635 150.068 232.778 150.377C232.922 150.685 232.778 151.049 232.469 151.193C231.278 151.733 230.694 152.594 230.683 152.605C230.561 152.781 230.363 152.88 230.164 152.88Z" fill="#FC7972"/>
<path d="M245.219 170.02V183.002C245.219 183.002 249.09 189.609 254.329 190.061C259.557 190.513 264.212 184.37 264.212 184.37V170.936L245.219 170.02Z" fill="#FDBEAB"/>
<path d="M245.219 170.02V175.778C248.737 179.671 254.969 180.653 264.201 179.285V170.925L245.219 170.02Z" fill="#FB9E82"/>
<path d="M277.889 145.171C277.69 147.917 277.37 150.829 276.83 153.719C275.087 163.292 271.172 172.7 262.723 175.723C243.598 182.55 236.76 166.149 234.024 156.586C233.726 155.527 233.451 154.347 233.219 153.079C232.789 150.796 232.447 148.259 232.182 145.7C231.873 142.59 231.664 139.446 231.532 136.689C231.245 130.865 234.741 125.527 240.179 123.432C248.021 120.42 259.944 118.038 271.227 124.435C275.396 126.796 278.01 131.174 278.109 135.961C278.164 138.553 278.131 141.741 277.889 145.171Z" fill="#FDBEAB"/>
<path d="M263.296 147.277C263.296 148.667 264.013 149.792 264.896 149.792C265.778 149.792 266.495 148.667 266.495 147.277C266.495 145.888 265.778 144.763 264.896 144.763C264.002 144.763 263.296 145.888 263.296 147.277Z" fill="#01305A"/>
<path d="M244.491 147.222C244.491 148.612 245.208 149.737 246.09 149.737C246.973 149.737 247.69 148.612 247.69 147.222C247.69 145.832 246.973 144.707 246.09 144.707C245.197 144.718 244.491 145.843 244.491 147.222Z" fill="#01305A"/>
<path d="M271.216 140.185C271.216 140.185 265.106 137.77 260.396 139.799L260.87 142.413C260.87 142.413 267.775 141.829 271.26 143.241C271.569 142.248 271.613 141.222 271.216 140.185Z" fill="#01305A"/>
<path d="M240.818 140.185C240.818 140.185 246.928 137.77 251.638 139.799L251.164 142.413C251.164 142.413 244.259 141.829 240.774 143.241C240.465 142.248 240.421 141.222 240.818 140.185Z" fill="#01305A"/>
<path d="M254.87 156.994C253.833 156.994 252.796 156.586 252.642 156.52C252.322 156.388 252.179 156.035 252.3 155.715C252.433 155.395 252.785 155.252 253.105 155.373C253.668 155.594 255.002 155.958 255.576 155.605C255.686 155.538 255.841 155.406 255.874 155.031C256.094 152.88 255.51 145.656 255.499 145.59C255.466 145.248 255.719 144.95 256.061 144.928C256.403 144.895 256.701 145.149 256.723 145.491C256.745 145.788 257.33 152.902 257.098 155.163C257.01 156.013 256.558 156.454 256.205 156.675C255.819 156.906 255.344 156.994 254.87 156.994Z" fill="#FB9E82"/>
<path d="M263.297 161.505C262.789 164.042 261.113 168.708 255.477 168.708C249.819 168.708 248.23 164.439 247.69 161.505H263.297Z" fill="white"/>
<path d="M232.182 145.689H234.973C234.664 142.888 234.223 137.935 236.528 137.229C243.807 134.99 234.377 129.851 237.664 127.281C240.951 124.711 249.135 125.814 254.826 125.626C260.55 125.439 269.749 125.527 271.988 126.034C274.227 126.542 273.003 130.259 272.175 133.149C271.348 136.027 274.922 139.204 275.517 142.182C275.694 143.031 275.65 144.31 275.517 145.678H277.844C278.12 142.049 278.164 138.674 278.109 135.939C278.021 131.141 275.407 126.762 271.227 124.402C259.933 118.005 248.021 120.387 240.168 123.398C234.719 125.494 231.234 130.832 231.509 136.656C231.664 139.435 231.862 142.579 232.182 145.689Z" fill="#01305A"/>
<path d="M309.268 326.066C306.058 312.279 303.003 298.558 302.97 292.073L301.183 286.051L294.654 263.981L284.429 229.425C284.429 229.425 286.095 206.727 295.701 202.249C295.701 202.249 306.345 223.745 312.191 244.293C313.183 247.778 314.176 251.341 315.169 254.881C319.327 269.782 323.242 284.485 325.062 293.22C326.882 301.933 328.062 314.198 328.834 326.088H309.268V326.066Z" fill="#3B73A9"/>
<path d="M198.013 326.066C201.223 312.279 204.278 298.558 204.311 292.073L206.098 286.051L212.627 263.981L222.851 229.425C222.851 229.425 220.679 207.532 211.072 203.054C211.072 203.054 200.925 223.734 195.079 244.282C194.086 247.767 193.094 251.33 192.101 254.87C187.943 269.771 184.028 284.474 182.208 293.209C180.388 301.922 179.208 314.187 178.436 326.077H198.013V326.066Z" fill="#3B73A9"/>
<path d="M125.009 326.066C125.185 322.846 125.351 319.79 125.505 316.956C126.134 305.364 126.542 297.444 126.542 297.444L122.35 297.246L119.99 297.136L91.4788 295.768C91.4788 295.768 90.9604 304.625 90.3538 317.618C90.2325 320.276 90.1001 323.11 89.9678 326.077H125.009V326.066Z" fill="#01305A"/>
<path d="M122.35 297.235L126.541 297.433C126.541 297.433 126.133 305.353 125.504 316.945C114.552 317.937 102.585 318.334 90.3423 317.595C90.9489 304.592 91.4673 295.746 91.4673 295.746L119.979 297.114L122.35 297.235Z" fill="#001336"/>
<path d="M120.85 326.066C121.512 313.68 122.052 303.07 122.35 297.246L119.99 297.136C119.692 302.992 119.152 313.647 118.49 326.077H120.85V326.066Z" fill="#001336"/>
<path d="M134.196 326.066H169.248C169.115 323.099 168.994 320.265 168.862 317.607C168.255 304.603 167.737 295.757 167.737 295.757L139.225 297.125L136.865 297.235L132.674 297.434C132.674 297.434 133.082 305.353 133.711 316.945C133.854 319.79 134.019 322.846 134.196 326.066Z" fill="#01305A"/>
<path d="M136.855 297.235L132.664 297.433C132.664 297.433 133.072 305.353 133.7 316.945C144.653 317.937 156.62 318.334 168.863 317.595C168.256 304.592 167.737 295.746 167.737 295.746L139.226 297.114L136.855 297.235Z" fill="#001336"/>
<path d="M140.726 326.066C140.064 313.636 139.513 302.981 139.226 297.125L136.866 297.235C137.164 303.059 137.704 313.669 138.366 326.055H140.726V326.066Z" fill="#001336"/>
<path d="M129.917 54.4308C129.917 54.4308 106.589 52.0925 100.38 86.4606C94.1591 120.829 89.9789 142.358 91.3907 160.634C92.8024 178.91 152.748 174.046 162.046 164.87C171.344 155.693 161.197 94.3687 158.891 78.0671C156.586 61.7654 139.182 52.8095 129.917 54.4308Z" fill="#01305A"/>
<path d="M93.0451 219.234C93.1554 221.319 93.2437 223.425 93.3209 225.543C93.751 238.205 89.4716 256.382 87.9605 300.555C112.512 307.923 144.299 306.886 172.469 300.467C170.958 256.293 167.836 238.216 168.267 225.543C168.421 221.032 168.653 216.587 168.939 212.241C169.965 196.613 171.664 182.395 172.789 171.62C173.936 160.678 174.498 153.289 173.164 151.601C172.006 150.145 170.12 148.579 167.803 147.002C164.274 144.575 159.73 142.071 155.263 139.722C154.413 139.281 153.575 138.84 152.737 138.399C147.575 135.707 142.766 133.281 140.042 131.472C136.656 132.95 133.954 133.755 131.053 133.744C130.976 133.744 130.887 133.744 130.81 133.733C130.722 133.744 130.634 133.744 130.557 133.744C127.645 133.766 124.954 132.95 121.568 131.472C118.667 133.402 113.328 136.082 107.67 139.049C106.667 139.579 105.641 140.119 104.626 140.66C101.792 142.171 98.979 143.737 96.4422 145.281C95.3724 145.932 94.3466 146.594 93.3981 147.244C90.9716 148.888 89.0083 150.498 87.8282 151.987C85.137 155.384 90.6186 181.679 92.7253 213.852C92.8356 215.605 92.9459 217.414 93.0451 219.234Z" fill="#FD7C78"/>
<path d="M160.049 257.882C143.009 257.804 128.461 250.051 119.262 243.565C109.314 236.539 103.28 229.436 103.225 229.359C102.939 229.017 102.983 228.499 103.325 228.201C103.666 227.914 104.185 227.959 104.483 228.3C104.538 228.367 110.461 235.348 120.255 242.242C129.255 248.584 143.472 256.161 160.061 256.238C160.513 256.238 160.877 256.613 160.877 257.065C160.877 257.518 160.502 257.882 160.049 257.882Z" fill="#D64E5A"/>
<path d="M148.777 247.966C134.273 245.109 121.424 234.003 120.839 233.495C120.497 233.197 120.464 232.679 120.762 232.337C121.06 231.995 121.578 231.962 121.92 232.26C122.075 232.392 137.185 245.462 152.582 246.863C153.035 246.896 153.365 247.304 153.321 247.756C153.277 248.209 152.88 248.54 152.428 248.495C151.204 248.385 149.979 248.198 148.777 247.966Z" fill="#D64E5A"/>
<path d="M124.203 167.506C123.817 167.506 123.476 167.23 123.398 166.844C123.31 166.403 123.608 165.972 124.049 165.884C144.818 161.947 151.082 148.579 151.149 148.447C151.336 148.038 151.821 147.851 152.23 148.038C152.638 148.226 152.825 148.711 152.638 149.119C152.373 149.704 145.954 163.392 124.358 167.495C124.303 167.495 124.259 167.506 124.203 167.506Z" fill="#D64E5A"/>
<path d="M152.714 138.399C147.784 146.737 139.225 155.252 128.251 153.355C118.137 151.612 111.96 145.127 107.659 139.038C113.317 136.082 118.655 133.391 121.556 131.461C124.942 132.939 127.633 133.744 130.545 133.733C130.622 133.733 130.71 133.733 130.799 133.722C130.876 133.733 130.964 133.733 131.041 133.733C133.942 133.755 136.644 132.939 140.03 131.461C142.755 133.281 147.553 135.707 152.714 138.399Z" fill="#FDBEAB"/>
<path d="M114.927 136.535C114.817 136.535 114.718 136.524 114.607 136.502C114.508 136.48 114.398 136.446 114.299 136.413C114.199 136.369 114.111 136.325 114.012 136.259C113.924 136.204 113.846 136.127 113.769 136.06C113.46 135.763 113.295 135.344 113.295 134.913C113.295 134.803 113.306 134.704 113.328 134.594C113.35 134.494 113.383 134.384 113.416 134.285C113.46 134.185 113.504 134.097 113.571 133.998C113.626 133.91 113.703 133.832 113.769 133.755C113.846 133.678 113.924 133.612 114.012 133.557C114.1 133.502 114.188 133.446 114.299 133.402C114.398 133.358 114.497 133.325 114.607 133.314C114.817 133.27 115.038 133.27 115.247 133.314C115.357 133.336 115.457 133.369 115.556 133.402C115.655 133.446 115.743 133.491 115.832 133.557C115.92 133.612 116.008 133.689 116.074 133.755C116.152 133.832 116.218 133.91 116.273 133.998C116.328 134.086 116.383 134.174 116.427 134.285C116.471 134.384 116.505 134.483 116.516 134.594C116.538 134.704 116.549 134.803 116.549 134.913C116.549 135.344 116.372 135.763 116.074 136.06C115.997 136.138 115.92 136.204 115.832 136.259C115.743 136.314 115.655 136.369 115.556 136.413C115.457 136.458 115.357 136.491 115.247 136.502C115.137 136.524 115.038 136.535 114.927 136.535Z" fill="white"/>
<path d="M131.648 178.535V178.524C131.472 179.407 130.623 179.969 129.74 179.804C128.869 179.627 128.284 178.789 128.45 177.918C127.987 178.668 127.005 178.921 126.233 178.469C125.461 178.017 125.207 177.035 125.637 176.274C124.987 176.859 123.994 176.826 123.376 176.197C122.77 175.568 122.77 174.565 123.376 173.947C122.637 174.377 121.678 174.156 121.192 173.429C120.718 172.701 120.895 171.741 121.578 171.234C120.784 171.553 119.88 171.212 119.505 170.439C119.13 169.667 119.417 168.741 120.156 168.322C119.351 168.553 118.479 168.134 118.181 167.34C117.873 166.546 118.248 165.653 119.009 165.3C118.192 165.476 117.354 164.991 117.112 164.175C116.869 163.359 117.288 162.498 118.06 162.189C117.233 162.322 116.439 161.792 116.229 160.976C116.031 160.149 116.494 159.322 117.277 159.046C116.45 159.134 115.678 158.583 115.501 157.756C115.336 156.928 115.832 156.112 116.626 155.869C115.799 155.925 115.049 155.351 114.906 154.513C114.773 153.675 115.292 152.892 116.097 152.682C115.27 152.715 114.531 152.108 114.42 151.27C114.31 150.432 114.861 149.66 115.667 149.472C114.839 149.483 114.123 148.855 114.034 148.016C113.946 147.178 114.509 146.417 115.325 146.252C114.498 146.241 113.803 145.601 113.725 144.763C113.659 143.924 114.244 143.174 115.06 143.031C114.233 142.998 113.549 142.347 113.505 141.498C113.461 140.649 114.067 139.921 114.895 139.788C114.067 139.744 113.384 139.072 113.361 138.222C113.328 137.329 114.034 136.568 114.928 136.546C115.832 136.513 116.582 137.219 116.615 138.112C116.637 138.95 116.042 139.656 115.225 139.777C116.042 139.822 116.703 140.472 116.759 141.31C116.803 142.138 116.218 142.866 115.424 143.009C116.24 143.042 116.913 143.671 116.979 144.498C117.045 145.325 116.483 146.064 115.689 146.219C116.505 146.23 117.189 146.847 117.277 147.675C117.365 148.502 116.814 149.252 116.031 149.428C116.847 149.417 117.553 150.013 117.663 150.84C117.773 151.656 117.244 152.417 116.472 152.627C117.277 152.594 118.005 153.167 118.137 153.983C118.27 154.8 117.773 155.572 117.001 155.803C117.806 155.748 118.545 156.289 118.711 157.105C118.876 157.921 118.402 158.704 117.641 158.969C118.435 158.881 119.196 159.399 119.395 160.193C119.593 160.987 119.163 161.792 118.424 162.09C119.218 161.969 119.99 162.443 120.233 163.226C120.464 164.009 120.089 164.825 119.373 165.167C120.145 165.002 120.95 165.421 121.237 166.182C121.523 166.943 121.214 167.77 120.531 168.167C121.281 167.947 122.097 168.289 122.45 169.017C122.792 169.734 122.571 170.572 121.965 171.035C122.67 170.748 123.509 170.991 123.939 171.653C124.358 172.303 124.259 173.131 123.751 173.671C124.38 173.307 125.207 173.395 125.737 173.947C126.244 174.476 126.332 175.259 125.979 175.877C126.498 175.414 127.27 175.315 127.898 175.69C128.505 176.042 128.792 176.726 128.67 177.377C129.012 176.815 129.685 176.506 130.369 176.638C131.053 176.77 131.549 177.311 131.67 177.962C131.803 177.322 132.31 176.804 132.983 176.682C133.645 176.561 134.284 176.859 134.626 177.388C134.516 176.77 134.77 176.109 135.332 175.734C135.928 175.337 136.678 175.392 137.218 175.789C136.843 175.215 136.854 174.443 137.307 173.881C137.781 173.285 138.586 173.109 139.248 173.406C138.685 172.921 138.509 172.105 138.862 171.421C139.226 170.715 140.031 170.384 140.759 170.605C140.097 170.219 139.788 169.403 140.064 168.653C140.34 167.892 141.123 167.473 141.884 167.605C141.167 167.285 140.77 166.48 140.979 165.697C141.189 164.903 141.939 164.406 142.733 164.506C141.983 164.23 141.531 163.458 141.696 162.653C141.862 161.847 142.579 161.307 143.373 161.351C142.612 161.12 142.115 160.359 142.237 159.553C142.358 158.737 143.064 158.153 143.869 158.175C143.086 157.987 142.557 157.237 142.645 156.41C142.733 155.594 143.428 154.976 144.222 154.965C143.439 154.8 142.877 154.072 142.943 153.244C143.009 152.417 143.671 151.789 144.476 151.744C143.682 151.601 143.097 150.895 143.141 150.068C143.185 149.241 143.836 148.59 144.641 148.524C143.847 148.402 143.24 147.708 143.263 146.869C143.285 146.042 143.924 145.369 144.729 145.292C143.924 145.193 143.307 144.498 143.307 143.671C143.307 142.844 143.924 142.171 144.718 142.061C143.924 141.961 143.296 141.299 143.285 140.472C143.274 139.645 143.869 138.961 144.663 138.84C143.858 138.763 143.229 138.101 143.196 137.285C143.163 136.391 143.858 135.63 144.763 135.597C145.656 135.564 146.417 136.259 146.45 137.163C146.483 138.002 145.877 138.708 145.071 138.829C145.888 138.906 146.527 139.59 146.549 140.417C146.56 141.255 145.943 141.95 145.138 142.061C145.954 142.149 146.582 142.844 146.571 143.682C146.571 144.52 145.921 145.215 145.104 145.292C145.921 145.391 146.549 146.108 146.527 146.947C146.505 147.785 145.854 148.469 145.027 148.524C145.843 148.645 146.45 149.373 146.406 150.211C146.362 151.05 145.689 151.711 144.862 151.755C145.678 151.899 146.263 152.649 146.196 153.487C146.13 154.325 145.435 154.976 144.608 154.987C145.413 155.164 145.976 155.914 145.888 156.763C145.799 157.601 145.071 158.23 144.244 158.208C145.049 158.406 145.59 159.189 145.457 160.028C145.325 160.866 144.586 161.461 143.759 161.406C144.553 161.649 145.049 162.454 144.884 163.281C144.718 164.109 143.935 164.671 143.108 164.583C143.902 164.87 144.343 165.708 144.123 166.535C143.902 167.362 143.086 167.87 142.259 167.715C143.031 168.057 143.406 168.951 143.119 169.756C142.821 170.572 141.95 171.002 141.134 170.759C141.873 171.201 142.149 172.138 141.751 172.91C141.354 173.682 140.417 174.002 139.634 173.649C140.296 174.212 140.395 175.215 139.854 175.899C139.303 176.594 138.299 176.715 137.593 176.175C138.09 176.925 137.891 177.94 137.141 178.436C136.391 178.932 135.376 178.734 134.88 177.973C135.035 178.855 134.439 179.704 133.557 179.859C133.457 179.87 133.369 179.881 133.27 179.881C132.465 179.881 131.781 179.318 131.648 178.535Z" fill="white"/>
<path d="M144.619 135.619C144.508 135.619 144.409 135.608 144.299 135.586C144.2 135.564 144.089 135.531 143.99 135.498C143.891 135.454 143.803 135.41 143.703 135.343C143.615 135.288 143.538 135.211 143.461 135.145C143.152 134.836 142.986 134.428 142.986 133.998C142.986 133.888 142.997 133.788 143.019 133.678C143.041 133.579 143.075 133.468 143.108 133.369C143.152 133.27 143.196 133.182 143.262 133.093C143.317 133.005 143.394 132.917 143.461 132.84C143.538 132.763 143.615 132.696 143.703 132.641C143.791 132.586 143.88 132.531 143.99 132.487C144.089 132.443 144.189 132.41 144.299 132.388C144.508 132.343 144.729 132.343 144.939 132.388C145.049 132.41 145.148 132.443 145.247 132.487C145.347 132.52 145.435 132.575 145.523 132.641C145.611 132.696 145.7 132.774 145.777 132.84C145.854 132.917 145.92 133.005 145.975 133.093C146.03 133.182 146.086 133.27 146.13 133.369C146.174 133.468 146.207 133.568 146.218 133.678C146.24 133.788 146.251 133.888 146.251 133.998C146.251 134.428 146.075 134.847 145.777 135.145C145.7 135.222 145.622 135.288 145.534 135.343C145.446 135.399 145.358 135.454 145.258 135.498C145.159 135.531 145.06 135.564 144.95 135.586C144.828 135.608 144.729 135.619 144.619 135.619Z" fill="white"/>
<path d="M110.196 94.2915C110.196 94.2915 105.1 88.501 102.321 92.5489C99.5303 96.5967 103.49 109.137 110.24 106.259L110.196 94.2915Z" fill="#FB9E82"/>
<path d="M108.641 102.078C108.387 102.078 108.167 101.913 108.101 101.659C107.086 97.9312 103.248 96.3871 103.215 96.3761C102.928 96.2658 102.773 95.9349 102.895 95.6371C103.005 95.3503 103.336 95.1959 103.634 95.3172C103.81 95.3834 108.046 97.0709 109.204 101.361C109.281 101.67 109.104 101.979 108.807 102.056C108.74 102.067 108.685 102.078 108.641 102.078Z" fill="#FC7972"/>
<path d="M104.77 100.17C104.659 100.17 104.56 100.137 104.461 100.082C104.196 99.9056 104.13 99.5526 104.295 99.299C104.328 99.2549 105.012 98.2181 106.446 97.6004C106.733 97.4791 107.064 97.6004 107.196 97.8982C107.317 98.185 107.185 98.5269 106.898 98.6482C105.795 99.1335 105.244 99.9277 105.244 99.9277C105.134 100.082 104.957 100.17 104.77 100.17Z" fill="#FC7972"/>
<path d="M150.674 94.2915C150.674 94.2915 155.77 88.501 158.55 92.5489C161.34 96.5967 157.38 109.137 150.63 106.259L150.674 94.2915Z" fill="#FB9E82"/>
<path d="M152.23 102.078C152.483 102.078 152.704 101.913 152.77 101.659C153.785 97.9312 157.623 96.3871 157.656 96.3761C157.943 96.2658 158.097 95.9349 157.976 95.6371C157.866 95.3503 157.535 95.1959 157.237 95.3172C157.06 95.3834 152.825 97.0709 151.667 101.361C151.59 101.67 151.766 101.979 152.064 102.056C152.13 102.067 152.185 102.078 152.23 102.078Z" fill="#FC7972"/>
<path d="M156.101 100.17C156.212 100.17 156.311 100.137 156.41 100.082C156.675 99.9056 156.741 99.5526 156.576 99.299C156.543 99.2549 155.859 98.2181 154.425 97.6004C154.138 97.4791 153.807 97.6004 153.675 97.8982C153.554 98.185 153.686 98.5269 153.973 98.6482C155.076 99.1335 155.627 99.9277 155.627 99.9277C155.737 100.082 155.914 100.17 156.101 100.17Z" fill="#FC7972"/>
<path d="M140.097 118.601V131.472C140.097 131.472 136.259 138.024 131.064 138.476C125.88 138.928 121.27 132.829 121.27 132.829V119.505L140.097 118.601Z" fill="#FDBEAB"/>
<path d="M140.097 118.601V124.314C136.612 128.174 130.435 129.553 121.281 128.196V119.505L140.097 118.601Z" fill="#FB9E82"/>
<path d="M153.663 85.5451C153.421 90.5414 152.946 96.8062 151.998 101.803C151.755 103.049 151.49 104.229 151.193 105.277C148.479 114.762 141.707 131.02 122.747 124.248C114.376 121.259 110.494 111.928 108.762 102.442C107.593 96.0011 107.405 89.4826 107.494 84.8392C107.582 80.0855 110.174 75.7508 114.31 73.4016C125.505 67.0596 137.317 69.4199 145.093 72.4089C150.487 74.4825 153.939 79.7877 153.663 85.5451Z" fill="#FDBEAB"/>
<path d="M127.446 72.6516C127.446 72.6516 119.075 87.0341 110.097 89.3944C109.645 91.7989 108.851 94.9423 107.77 94.7658C106.523 94.5673 106.49 91.4018 106.568 89.6371C98.1299 88.1701 106.711 68.8574 119.946 68.5927L127.446 72.6516Z" fill="#01305A"/>
<path d="M154.589 86.7694C154.589 86.7694 153.586 95.0636 151.854 94.7769C150.122 94.4901 150.729 88.468 150.729 88.468L151.027 88.3356C117.409 86.2731 119.979 68.8464 119.979 68.8464C155.483 61.1037 154.237 79.4899 154.6 86.0194V86.7694H154.589Z" fill="#01305A"/>
<path d="M121.953 95.1298C121.953 96.5085 121.247 97.6224 120.376 97.6224C119.505 97.6224 118.799 96.5085 118.799 95.1298C118.799 93.7511 119.505 92.6371 120.376 92.6371C121.247 92.6481 121.953 93.7621 121.953 95.1298Z" fill="#01305A"/>
<path d="M141.486 95.1298C141.486 96.5085 140.781 97.6224 139.909 97.6224C139.038 97.6224 138.332 96.5085 138.332 95.1298C138.332 93.7511 139.038 92.6371 139.909 92.6371C140.781 92.6481 141.486 93.7621 141.486 95.1298Z" fill="#01305A"/>
<path d="M117.244 87.729C118.556 87.354 121.215 86.7253 124.005 86.7143C124.744 86.7143 125.307 87.365 125.174 88.093V88.115C125.075 88.6886 124.557 89.1077 123.961 89.0746C122.053 88.9864 117.056 89.2511 114.696 90.2107C114.652 89.8026 114.895 89.3504 115.237 88.9533C115.766 88.3467 116.472 87.9386 117.244 87.729Z" fill="#01305A"/>
<path d="M142.799 87.7731C141.486 87.3981 138.828 86.7694 136.038 86.7584C135.299 86.7584 134.736 87.4091 134.869 88.1371V88.1591C134.968 88.7326 135.486 89.1518 136.082 89.1187C137.99 89.0304 142.986 89.2952 145.347 90.2547C145.391 89.8466 145.148 89.3944 144.806 88.9974C144.277 88.3907 143.56 87.9937 142.799 87.7731Z" fill="#01305A"/>
<path d="M130.523 106.479C130.06 106.479 129.586 106.402 129.189 106.159C128.836 105.95 128.383 105.509 128.295 104.67C128.064 102.42 128.637 95.3835 128.659 95.0857C128.692 94.7438 128.979 94.5011 129.321 94.5232C129.663 94.5452 129.906 94.843 129.883 95.185C129.872 95.2622 129.288 102.409 129.508 104.549C129.553 104.924 129.696 105.056 129.806 105.123C130.38 105.464 131.703 105.112 132.255 104.891C132.564 104.759 132.928 104.913 133.049 105.222C133.181 105.531 133.027 105.895 132.718 106.016C132.575 106.082 131.549 106.479 130.523 106.479Z" fill="#FB9E82"/>
<path d="M122.759 110.339C123.222 112.667 124.755 116.946 129.928 116.946C135.112 116.946 136.568 113.042 137.075 110.339H122.759Z" fill="white"/>
<path d="M129.861 120.509C128.372 120.509 127.049 119.704 126.993 119.671C126.707 119.494 126.618 119.119 126.795 118.832C126.971 118.546 127.346 118.457 127.633 118.634C127.644 118.645 128.725 119.296 129.861 119.296C131.096 119.296 132.199 118.645 132.21 118.634C132.497 118.457 132.872 118.557 133.049 118.843C133.225 119.13 133.126 119.505 132.839 119.682C132.784 119.715 131.438 120.509 129.861 120.509Z" fill="#FB9E82"/>
<path d="M106.149 83.0966C106.126 83.2399 106.049 83.9348 105.939 84.9275C105.95 84.4532 106.027 83.8245 106.149 83.0966Z" fill="#01305A"/>
<path d="M132.895 96.4423C132.895 92.3393 136.225 89.0084 140.328 89.0084C144.431 89.0084 147.762 92.3393 147.762 96.4423C147.762 100.545 144.431 103.876 140.328 103.876C136.236 103.876 132.895 100.534 132.895 96.4423ZM134.053 96.4423C134.053 99.9055 136.865 102.718 140.328 102.718C143.792 102.718 146.604 99.9055 146.604 96.4423C146.604 92.979 143.792 90.1665 140.328 90.1665C136.876 90.1665 134.053 92.979 134.053 96.4423Z" fill="white"/>
<path d="M112.578 96.4423C112.578 92.3393 115.909 89.0084 120.012 89.0084C124.115 89.0084 127.446 92.3393 127.446 96.4423C127.446 100.545 124.115 103.876 120.012 103.876C115.909 103.876 112.578 100.534 112.578 96.4423ZM113.736 96.4423C113.736 99.9055 116.549 102.718 120.012 102.718C123.475 102.718 126.288 99.9055 126.288 96.4423C126.288 92.979 123.475 90.1665 120.012 90.1665C116.549 90.1665 113.736 92.979 113.736 96.4423Z" fill="white"/>
<path d="M113.361 92.9349C113.163 92.8025 109.578 90.4974 105.553 89.7363C105.133 89.6591 104.736 89.979 104.736 90.4091C104.736 90.74 104.968 91.0158 105.288 91.0819C109.06 91.7989 112.556 94.0489 112.611 94.082C112.722 94.1592 112.854 94.1923 112.986 94.1923C113.207 94.1923 113.428 94.082 113.56 93.8834C113.77 93.5636 113.681 93.1445 113.361 92.9349Z" fill="white"/>
<path d="M146.693 93.1113C146.891 92.9789 150.476 90.6738 154.49 89.9127C154.91 89.8355 155.307 90.1554 155.307 90.5855C155.307 90.9164 155.075 91.1921 154.755 91.2583C150.983 91.9752 147.487 94.2253 147.443 94.2584C147.332 94.3356 147.2 94.3687 147.068 94.3687C146.847 94.3687 146.626 94.2584 146.494 94.0598C146.284 93.751 146.373 93.3208 146.693 93.1113Z" fill="white"/>
<path d="M127.038 94.7658C127.049 94.7437 128.428 92.8908 130.237 92.8908C132.023 92.8908 133.27 94.7548 133.281 94.7658L134.251 94.1371C134.185 94.0378 132.663 91.7327 130.237 91.7327C127.832 91.7327 126.167 93.9937 126.101 94.093L127.038 94.7658Z" fill="white"/>
<path d="M183.002 215.826C178.943 227.44 160.778 226.591 140.075 220.249C140.042 220.238 140.02 220.227 139.987 220.227C139.921 220.205 139.855 220.183 139.788 220.172L136.943 219.267C136.546 219.135 136.16 219.014 135.763 218.87C133.535 218.12 131.285 217.315 129.035 216.455C121.645 213.642 114.189 210.322 107.163 206.771L107.207 206.649L109.325 201.157L110.053 199.282C110.053 199.282 148.425 203.462 167.715 199.425C168.046 199.359 168.366 199.293 168.675 199.215C168.598 198.785 168.576 198.355 168.454 197.947C158.23 163.149 169.414 156.476 173.153 151.623C173.142 151.601 190.657 193.899 183.002 215.826Z" fill="#FD7C78"/>
<path d="M176.748 205.05C176.638 205.105 176.506 205.127 176.395 205.127C176.098 205.127 175.8 204.962 175.656 204.664C174.189 201.675 169.237 199.888 167.704 199.403C168.035 199.337 168.355 199.271 168.664 199.193C168.586 198.763 168.509 198.344 168.443 197.925C170.384 198.565 175.447 200.517 177.123 203.958C177.322 204.366 177.156 204.852 176.748 205.05Z" fill="#D64E5A"/>
<path d="M123.013 203.594C115.182 203.594 108.829 203.142 108.266 203.109C107.814 203.076 107.472 202.679 107.505 202.238C107.538 201.785 107.924 201.454 108.376 201.477C108.663 201.499 137.45 203.528 148.789 198.929C149.208 198.763 149.682 198.962 149.859 199.381C150.024 199.8 149.825 200.274 149.406 200.451C143.142 202.988 132.09 203.594 123.013 203.594Z" fill="#D64E5A"/>
<path d="M136.943 219.245C136.954 219.245 136.954 219.245 136.943 219.245C143.516 217.436 149.483 215.672 152.925 214.569C157.711 213.035 161.671 208.194 163.469 204.08C163.645 203.66 164.131 203.473 164.55 203.66C164.969 203.837 165.156 204.322 164.969 204.741C163.017 209.186 158.693 214.436 153.421 216.124C150.917 216.929 147.101 218.076 142.689 219.333C140.814 219.874 138.807 219.841 136.943 219.245Z" fill="#D64E5A"/>
<path d="M154.645 213.62C95.3503 233.595 77.1074 220.525 77.1074 220.525C73.1147 184.425 87.8281 151.965 87.8281 151.965C92.1738 159.134 97.0929 171.642 97.0929 171.642L98.3944 199.315L98.2952 200.087L98.2511 200.451L98.0084 202.348V202.381C98.1297 202.403 98.2621 202.436 98.3944 202.458C116.328 206.241 149.13 202.017 149.13 202.017L154.645 213.62Z" fill="#FD7C78"/>
<path d="M98.3721 202.447C95.1735 205.127 92.1294 208.227 89.4161 211.778C89.1404 212.142 88.633 212.208 88.269 211.933C87.9051 211.657 87.8389 211.15 88.1146 210.786C91.1588 206.782 94.611 203.363 98.2397 200.44L97.9971 202.337V202.37C98.1184 202.392 98.2397 202.425 98.3721 202.447Z" fill="#D64E5A"/>
<path d="M149.108 202.006C149.108 202.006 155.671 187.094 165.653 188.418L168.664 199.204C163.204 201.521 162.399 210.896 154.645 213.62L149.108 202.006Z" fill="#FDBEAB"/>
<path d="M110.053 199.271C110.053 199.271 105.906 189.543 94.9975 186.719C84.0893 183.896 77.1407 189.035 76.4017 190.976C75.6738 192.918 80.5157 191.065 80.5157 191.065C80.5157 191.065 77.3613 191.958 75.5525 194.925C73.7436 197.892 79.9643 194.693 79.9643 194.693C79.9643 194.693 75.5083 196.646 74.9348 198.455C74.3723 200.263 80.251 197.208 81.354 197.263C81.354 197.263 76.1039 199.348 76.137 201.223C76.1701 203.098 82.1702 200.043 86.6482 200.285C91.1262 200.528 97.9976 202.381 97.9976 202.381C101.659 203.076 105.167 203.594 108.332 203.738L110.053 199.271Z" fill="#FDBEAB"/>
<path d="M326.231 227.142V292.558C326.231 296.981 322.658 300.555 318.235 300.555H189.167C184.755 300.555 181.171 296.981 181.171 292.558V227.142C181.171 222.73 184.744 219.146 189.167 219.146H318.246C322.658 219.157 326.231 222.73 326.231 227.142Z" fill="#001336"/>
<path d="M326.231 231.543V292.558C326.231 296.981 322.658 300.555 318.235 300.555H189.167C184.755 300.555 181.171 296.981 181.171 292.558V231.543C181.171 227.131 184.744 223.547 189.167 223.547H318.246C322.658 223.547 326.231 227.131 326.231 231.543Z" fill="#01305A"/>
<path d="M264.94 300.467H242.473V326.077H264.94V300.467Z" fill="#001336"/>
<path d="M264.598 260.848C264.598 267.003 259.601 271.999 253.447 271.999C247.292 271.999 242.296 267.003 242.296 260.848C242.296 254.694 247.292 249.698 253.447 249.698C259.612 249.698 264.598 254.694 264.598 260.848Z" fill="#3B73A9"/>
<path d="M282.312 326.077H224.363V323.728C224.363 320 227.385 316.989 231.102 316.989H275.573C279.301 316.989 282.312 320.011 282.312 323.728V326.077Z" fill="#01305A"/>
<path d="M71.2066 327.423H52.2248C49.6439 327.423 47.3497 325.757 46.5556 323.309L38.504 298.525C38.1732 297.511 38.8791 296.463 39.9489 296.375C54.6072 295.239 69.122 295.239 83.4935 296.375C84.5523 296.463 85.2582 297.511 84.9274 298.525L76.8758 323.309C76.0817 325.757 73.7986 327.423 71.2066 327.423Z" fill="#FD7C78"/>
<path d="M61.8538 299.364C73.6712 299.364 83.2511 298.83 83.2511 298.172C83.2511 297.515 73.6712 296.981 61.8538 296.981C50.0364 296.981 40.4565 297.515 40.4565 298.172C40.4565 298.83 50.0364 299.364 61.8538 299.364Z" fill="#01305A"/>
<path d="M62.7247 298.172V267.257C62.7247 266.705 62.2724 266.253 61.721 266.253C61.1695 266.253 60.7173 266.705 60.7173 267.257V298.172C61.3791 298.558 62.0519 298.558 62.7247 298.172Z" fill="#015288"/>
<path d="M61.7212 274.536C61.7212 274.536 63.6183 260.826 81.1773 260.826C81.1773 260.826 78.1662 280.216 61.7212 274.536Z" fill="#3B73A9"/>
<path d="M62.6143 278.749C62.6143 278.749 60.7172 265.04 43.1582 265.04C43.1582 265.04 46.1693 284.43 62.6143 278.749Z" fill="#3B73A9"/>
<path d="M62.8131 290.926C62.8131 290.926 58.3131 277.834 41.085 281.198C41.096 281.198 47.7689 299.661 62.8131 290.926Z" fill="#3B73A9"/>
<path d="M61.7104 290.816C61.7104 290.816 74.615 295.834 83.1629 280.503C83.1519 280.503 64.7546 273.687 61.7104 290.816Z" fill="#3B73A9"/>
</g>
<defs>
<clipPath id="clip0_500_3779">
<rect width="514.969" height="342.82" fill="white"/>
</clipPath>
</defs>
</svg>
