<svg width="458" height="343" viewBox="0 0 458 343" fill="none" xmlns="http://www.w3.org/2000/svg">
<path d="M423.755 283.697C423.604 283.61 423.581 283.471 423.581 283.397C423.581 283.323 423.604 283.185 423.755 283.098L436.813 275.61C437.689 275.108 438.671 274.858 439.652 274.858C440.633 274.858 441.615 275.108 442.491 275.61L455.55 283.098C455.701 283.185 455.724 283.323 455.724 283.397C455.724 283.471 455.701 283.61 455.55 283.697L442.491 291.185C440.74 292.188 438.565 292.188 436.815 291.185H436.815L423.755 283.697ZM435.779 273.83L422.721 281.317C421.964 281.751 421.511 282.529 421.511 283.397C421.511 284.265 421.964 285.043 422.721 285.477L435.779 292.965C436.974 293.65 438.313 293.994 439.652 293.994C440.992 293.994 442.332 293.65 443.526 292.965L456.584 285.477C457.342 285.043 457.794 284.265 457.794 283.397C457.794 282.529 457.342 281.751 456.584 281.317L443.525 273.83C442.331 273.145 440.992 272.802 439.652 272.802C438.313 272.802 436.973 273.145 435.779 273.83Z" fill="url(#paint0_linear_498_2055)"/>
<path d="M399.604 251.437L377.131 238.551C376.525 238.202 376.459 237.626 376.459 237.394C376.459 237.162 376.525 236.585 377.131 236.237L399.603 223.352C402.848 221.493 406.874 221.493 410.119 223.352L432.592 236.237C433.199 236.585 433.264 237.162 433.264 237.394C433.264 237.626 433.199 238.203 432.592 238.552L410.12 251.437C408.497 252.366 406.68 252.83 404.862 252.83C403.044 252.83 401.226 252.366 399.604 251.437ZM398.569 221.571L376.097 234.456C375.027 235.069 374.388 236.167 374.388 237.394C374.388 238.621 375.027 239.718 376.097 240.331L398.57 253.217C400.511 254.331 402.685 254.886 404.862 254.886C407.037 254.886 409.214 254.33 411.155 253.217L433.628 240.332C434.697 239.718 435.335 238.619 435.335 237.392C435.335 236.167 434.696 235.069 433.627 234.456L411.153 221.571C409.213 220.457 407.037 219.901 404.861 219.901C402.685 219.901 400.508 220.458 398.569 221.571Z" fill="url(#paint1_linear_498_2055)"/>
<path d="M25.2165 270.327L2.74354 257.442C2.13624 257.093 2.07088 256.516 2.07088 256.284C2.07088 256.052 2.13624 255.475 2.74215 255.127L25.2151 242.242C26.8373 241.313 28.6555 240.847 30.4732 240.847C32.2905 240.847 34.1087 241.313 35.7308 242.242L58.2038 255.128C58.8111 255.477 58.876 256.053 58.876 256.285C58.876 256.517 58.8111 257.093 58.2038 257.442L35.7322 270.327C34.1096 271.256 32.2919 271.721 30.4741 271.721C28.6564 271.721 26.8386 271.256 25.2165 270.327ZM24.1809 240.461L1.70788 253.347C0.638851 253.96 0 255.057 0 256.283C0 257.51 0.637918 258.608 1.70788 259.222L24.1823 272.108C26.1229 273.221 28.2976 273.777 30.4741 273.777C32.6493 273.777 34.8268 273.22 36.7664 272.108L59.2385 259.222C60.3085 258.61 60.9473 257.512 60.9473 256.285C60.9473 255.058 60.3085 253.961 59.2385 253.348L36.765 240.461C34.8249 239.348 32.6493 238.791 30.4732 238.791C28.2971 238.791 26.121 239.348 24.1809 240.461Z" fill="url(#paint2_linear_498_2055)"/>
<path d="M105.102 183.143L74.0125 165.316C73.299 164.906 72.8722 164.173 72.8722 163.354C72.8722 162.535 73.299 161.802 74.0125 161.392L105.1 143.566C109.715 140.921 115.449 140.918 120.068 143.566L151.157 161.393C151.871 161.803 152.297 162.535 152.297 163.355C152.297 164.174 151.871 164.907 151.157 165.317L120.069 183.143C117.761 184.466 115.173 185.127 112.585 185.127C109.998 185.127 107.41 184.466 105.102 183.143ZM104.09 141.826L73.0018 159.651C71.6532 160.425 70.8486 161.808 70.8486 163.354C70.8486 164.899 71.6532 166.283 73.0018 167.056L104.091 184.883C106.71 186.385 109.648 187.136 112.585 187.136C115.522 187.136 118.461 186.385 121.08 184.883L152.168 167.057C153.516 166.284 154.321 164.901 154.321 163.355C154.321 161.809 153.516 160.426 152.168 159.653L121.078 141.826C118.459 140.323 115.522 139.572 112.585 139.573C109.647 139.573 106.709 140.324 104.09 141.826Z" fill="url(#paint3_linear_498_2055)"/>
<path d="M67.6782 239.409C67.118 239.088 66.4504 238.544 66.4504 237.78C66.4504 236.989 67.1764 236.099 68.3989 235.398L187.71 165.975C189.163 165.143 191.069 164.713 192.861 164.713C194.306 164.713 195.678 164.993 196.676 165.565L371.706 265.927C372.266 266.248 372.934 266.791 372.934 267.554C372.934 268.347 372.208 269.235 370.986 269.937L251.673 339.36C249.051 340.865 244.944 341.053 242.71 339.77H242.709L67.6782 239.409ZM186.716 164.279L67.4043 233.702C65.5421 234.77 64.4736 236.257 64.4736 237.781C64.4736 239.108 65.2607 240.29 66.6906 241.109L241.722 341.469H241.72C243.034 342.223 244.753 342.592 246.546 342.592C248.669 342.592 250.893 342.073 252.668 341.056L371.979 271.633C373.842 270.565 374.91 269.079 374.91 267.554C374.91 266.228 374.123 265.046 372.693 264.227L197.664 163.866C196.35 163.113 194.63 162.742 192.837 162.742C190.715 162.742 188.49 163.261 186.716 164.279Z" fill="url(#paint4_linear_498_2055)"/>
<g opacity="0.5">
<path d="M241.93 323.156L95.9032 239.426C93.7749 238.205 94.0416 236.074 96.4993 234.664L190.221 180.925C192.678 179.516 196.396 179.364 198.525 180.584L344.552 264.314C346.68 265.534 346.413 267.666 343.956 269.076L250.234 322.814C247.777 324.223 244.058 324.376 241.93 323.156Z" fill="#01012F"/>
</g>
<path d="M232.578 31.3762L198.859 140.106C198.024 142.802 199.247 146.078 201.592 147.422L350.697 232.917C353.449 234.123 355.473 232.782 356.455 230.47L390.174 121.74C391.009 119.043 389.786 115.768 387.441 114.423L238.336 28.9281C235.095 27.9211 233.88 28.2561 232.578 31.3762Z" fill="url(#paint5_linear_498_2055)"/>
<path d="M189.684 152.941L94.5288 207.502L91.356 206.299L92.2469 210.719L92.2512 210.717C92.3695 211.382 92.8385 212.004 93.6802 212.487L242.318 297.715C244.485 298.957 248.269 298.801 250.771 297.367L346.168 242.667C347.345 241.992 348.022 241.155 348.189 240.327L348.195 240.333L349.105 236.031L345.361 236.977L345.414 237.04L198.137 152.593C197.155 152.03 195.841 151.754 194.465 151.754C192.804 151.754 191.052 152.156 189.684 152.941Z" fill="url(#paint6_linear_498_2055)"/>
<path d="M189.467 148.023L93.3918 203.111C90.8724 204.556 90.5986 206.741 92.7808 207.993L242.474 293.825C244.657 295.076 248.468 294.919 250.987 293.475L347.062 238.387C349.582 236.942 349.855 234.757 347.674 233.506L197.979 147.673C196.991 147.106 195.668 146.828 194.282 146.828C192.609 146.828 190.845 147.233 189.467 148.023Z" fill="url(#paint7_linear_498_2055)"/>
<path d="M347.062 237.228L250.987 292.317C248.468 293.761 244.657 293.919 242.475 292.667L92.7809 206.834C92.0373 206.408 91.6011 205.869 91.4197 205.292C91.1308 206.289 91.5536 207.288 92.7809 207.992L242.475 293.825C244.657 295.076 248.468 294.919 250.987 293.475L347.062 238.386C348.724 237.434 349.386 236.163 349.035 235.047C348.809 235.822 348.165 236.596 347.062 237.228Z" fill="white"/>
<g opacity="0.7">
<path d="M164.183 194.062L159.129 191.164C158.724 190.932 158.774 190.525 159.243 190.257L165.209 186.837C165.677 186.568 166.386 186.538 166.792 186.771L171.845 189.669C172.251 189.902 172.2 190.309 171.732 190.577L165.766 193.997C165.298 194.266 164.589 194.295 164.183 194.062Z" fill="#05033D"/>
<path d="M171.988 198.538L166.934 195.64C166.528 195.407 166.579 195.001 167.047 194.732L173.013 191.312C173.481 191.043 174.19 191.014 174.596 191.247L179.649 194.145C180.055 194.378 180.004 194.784 179.536 195.053L173.571 198.473C173.102 198.741 172.393 198.77 171.988 198.538Z" fill="#05033D"/>
<path d="M179.792 203.013L174.738 200.115C174.332 199.882 174.383 199.476 174.852 199.207L180.817 195.787C181.286 195.518 181.995 195.489 182.401 195.722L187.454 198.62C187.86 198.853 187.809 199.259 187.34 199.528L181.375 202.948C180.907 203.216 180.198 203.245 179.792 203.013Z" fill="#05033D"/>
<path d="M190.587 199.317L185.533 196.42C185.127 196.187 185.178 195.78 185.646 195.512L190.654 192.64C191.122 192.372 191.831 192.343 192.237 192.575L197.291 195.473C197.696 195.706 197.645 196.113 197.177 196.381L192.17 199.252C191.701 199.52 190.993 199.55 190.587 199.317Z" fill="#05033D"/>
<path d="M198.391 203.792L193.338 200.895C192.932 200.662 192.983 200.255 193.451 199.987L198.458 197.115C198.927 196.847 199.636 196.818 200.042 197.05L205.096 199.949C205.501 200.181 205.45 200.588 204.982 200.856L199.974 203.727C199.506 203.996 198.797 204.025 198.391 203.792Z" fill="#05033D"/>
<path d="M206.197 208.268L201.143 205.37C200.737 205.137 200.788 204.731 201.256 204.462L206.264 201.591C206.732 201.322 207.441 201.293 207.847 201.526L212.901 204.424C213.306 204.656 213.255 205.063 212.787 205.331L207.779 208.202C207.311 208.471 206.603 208.5 206.197 208.268Z" fill="#05033D"/>
<path d="M214.001 212.743L208.947 209.845C208.541 209.612 208.592 209.206 209.06 208.937L214.068 206.066C214.537 205.797 215.245 205.768 215.651 206.001L220.705 208.899C221.111 209.131 221.06 209.538 220.591 209.806L215.584 212.678C215.115 212.946 214.407 212.975 214.001 212.743Z" fill="#05033D"/>
<path d="M221.806 217.218L216.752 214.32C216.346 214.087 216.397 213.681 216.865 213.412L221.872 210.541C222.341 210.272 223.05 210.243 223.456 210.476L228.51 213.374C228.915 213.606 228.864 214.013 228.396 214.281L223.388 217.153C222.92 217.421 222.211 217.45 221.806 217.218Z" fill="#05033D"/>
<path d="M229.61 221.693L224.556 218.795C224.151 218.563 224.201 218.156 224.67 217.888L229.677 215.016C230.146 214.748 230.855 214.719 231.261 214.951L236.315 217.849C236.72 218.082 236.669 218.488 236.201 218.757L231.193 221.628C230.725 221.896 230.016 221.926 229.61 221.693Z" fill="#05033D"/>
<path d="M237.415 226.168L232.361 223.27C231.955 223.038 232.006 222.631 232.475 222.363L237.482 219.491C237.95 219.223 238.659 219.194 239.065 219.426L244.119 222.324C244.525 222.557 244.474 222.963 244.005 223.232L238.998 226.103C238.529 226.372 237.821 226.401 237.415 226.168Z" fill="#05033D"/>
<path d="M245.219 230.643L240.165 227.745C239.76 227.513 239.811 227.106 240.279 226.838L245.287 223.966C245.755 223.698 246.464 223.669 246.87 223.901L251.924 226.799C252.329 227.032 252.278 227.438 251.81 227.707L246.802 230.578C246.334 230.847 245.625 230.876 245.219 230.643Z" fill="#05033D"/>
<path d="M253.024 235.118L247.97 232.22C247.564 231.988 247.615 231.581 248.084 231.313L253.091 228.441C253.56 228.173 254.268 228.144 254.674 228.376L259.728 231.274C260.134 231.507 260.083 231.913 259.614 232.182L254.607 235.053C254.138 235.322 253.43 235.351 253.024 235.118Z" fill="#05033D"/>
<path d="M260.829 239.594L255.775 236.696C255.37 236.463 255.42 236.057 255.889 235.788L260.897 232.917C261.365 232.648 262.074 232.619 262.48 232.852L267.534 235.75C267.939 235.982 267.888 236.389 267.42 236.657L262.412 239.529C261.944 239.797 261.235 239.826 260.829 239.594Z" fill="#05033D"/>
<path d="M202.086 197.198L197.033 194.301C196.627 194.068 196.678 193.661 197.146 193.393L202.154 190.522C202.622 190.253 203.331 190.224 203.737 190.456L208.791 193.355C209.196 193.587 209.146 193.994 208.677 194.263L203.67 197.133C203.201 197.402 202.492 197.431 202.086 197.198Z" fill="#05033D"/>
<path d="M194.165 192.657L189.111 189.759C188.706 189.526 188.756 189.119 189.225 188.851L194.232 185.98C194.701 185.711 195.41 185.682 195.816 185.914L200.869 188.813C201.275 189.045 201.224 189.452 200.755 189.721L195.748 192.591C195.28 192.86 194.571 192.889 194.165 192.657Z" fill="#05033D"/>
<path d="M186.231 188.107L175.346 181.866C174.941 181.634 174.991 181.227 175.46 180.959L180.467 178.087C180.936 177.819 181.645 177.789 182.051 178.022L192.935 184.263C193.341 184.496 193.29 184.902 192.822 185.171L187.814 188.042C187.346 188.31 186.637 188.34 186.231 188.107Z" fill="#05033D"/>
<path d="M191.777 182.575L182.944 177.51C182.538 177.277 182.589 176.871 183.058 176.602L188.065 173.731C188.533 173.462 189.243 173.433 189.648 173.665L198.482 178.731C198.887 178.963 198.836 179.37 198.368 179.638L193.36 182.509C192.892 182.778 192.183 182.808 191.777 182.575Z" fill="#05033D"/>
<path d="M209.891 201.674L204.837 198.776C204.431 198.543 204.482 198.136 204.95 197.868L209.958 194.997C210.427 194.728 211.135 194.699 211.541 194.931L216.595 197.83C217.001 198.062 216.95 198.469 216.481 198.738L211.474 201.608C211.005 201.877 210.297 201.906 209.891 201.674Z" fill="#05033D"/>
<path d="M217.696 206.149L212.642 203.251C212.237 203.019 212.287 202.612 212.756 202.343L217.763 199.472C218.232 199.204 218.941 199.174 219.347 199.407L224.4 202.304C224.806 202.537 224.755 202.944 224.286 203.213L219.279 206.084C218.811 206.352 218.102 206.381 217.696 206.149Z" fill="#05033D"/>
<path d="M225.5 210.624L220.446 207.726C220.041 207.494 220.092 207.087 220.56 206.818L225.567 203.947C226.036 203.679 226.745 203.649 227.151 203.882L232.205 206.78C232.61 207.012 232.559 207.419 232.091 207.688L227.083 210.559C226.615 210.827 225.906 210.857 225.5 210.624Z" fill="#05033D"/>
<path d="M233.306 215.099L228.252 212.201C227.846 211.969 227.897 211.562 228.365 211.293L233.372 208.422C233.841 208.154 234.55 208.125 234.956 208.357L240.01 211.255C240.415 211.487 240.364 211.894 239.896 212.163L234.888 215.034C234.42 215.303 233.711 215.332 233.306 215.099Z" fill="#05033D"/>
<path d="M241.11 219.574L236.056 216.677C235.651 216.444 235.701 216.037 236.17 215.769L241.177 212.897C241.646 212.629 242.355 212.6 242.761 212.832L247.815 215.73C248.22 215.962 248.169 216.369 247.701 216.638L242.693 219.509C242.225 219.778 241.516 219.807 241.11 219.574Z" fill="#05033D"/>
<path d="M248.915 224.049L243.861 221.152C243.455 220.919 243.506 220.512 243.974 220.244L248.982 217.372C249.451 217.104 250.159 217.075 250.565 217.307L255.619 220.205C256.025 220.437 255.974 220.844 255.506 221.113L250.498 223.984C250.029 224.253 249.321 224.282 248.915 224.049Z" fill="#05033D"/>
<path d="M256.719 228.524L251.665 225.627C251.26 225.394 251.31 224.987 251.779 224.719L256.787 221.847C257.255 221.579 257.964 221.55 258.37 221.782L263.424 224.68C263.829 224.912 263.778 225.319 263.31 225.588L258.303 228.459C257.834 228.728 257.125 228.757 256.719 228.524Z" fill="#05033D"/>
<path d="M264.524 233L259.47 230.102C259.065 229.869 259.115 229.462 259.584 229.194L264.591 226.323C265.06 226.054 265.769 226.025 266.175 226.257L271.229 229.155C271.634 229.388 271.583 229.794 271.115 230.063L266.107 232.934C265.639 233.203 264.93 233.232 264.524 233Z" fill="#05033D"/>
<path d="M272.329 237.475L267.275 234.577C266.869 234.345 266.92 233.938 267.389 233.67L272.396 230.798C272.864 230.53 273.573 230.5 273.979 230.733L279.033 233.631C279.439 233.863 279.388 234.27 278.919 234.538L273.912 237.41C273.443 237.678 272.735 237.708 272.329 237.475Z" fill="#05033D"/>
<path d="M286.204 245.43L275.177 239.108C274.771 238.875 274.822 238.469 275.291 238.2L280.298 235.328C280.766 235.06 281.475 235.031 281.881 235.263L292.908 241.586C293.314 241.819 293.263 242.226 292.794 242.495L287.787 245.366C287.318 245.634 286.61 245.663 286.204 245.43Z" fill="#05033D"/>
<path d="M301.398 236.718L292.091 231.381C291.685 231.148 291.736 230.742 292.205 230.473L297.212 227.602C297.681 227.334 298.39 227.305 298.795 227.538L308.103 232.874C308.508 233.106 308.457 233.513 307.989 233.781L302.981 236.653C302.513 236.921 301.804 236.95 301.398 236.718Z" fill="#05033D"/>
<path d="M223.559 200.798L218.505 197.9C218.099 197.668 218.15 197.261 218.618 196.993L223.626 194.121C224.095 193.853 224.803 193.824 225.209 194.056L230.263 196.954C230.669 197.186 230.618 197.593 230.15 197.862L225.142 200.733C224.673 201.001 223.965 201.031 223.559 200.798Z" fill="#05033D"/>
<path d="M215.56 196.212L210.506 193.314C210.1 193.081 210.151 192.675 210.619 192.406L215.627 189.535C216.096 189.266 216.804 189.237 217.21 189.469L222.264 192.368C222.67 192.6 222.619 193.007 222.151 193.276L217.143 196.146C216.674 196.415 215.966 196.445 215.56 196.212Z" fill="#05033D"/>
<path d="M207.561 191.626L202.507 188.728C202.102 188.495 202.153 188.088 202.621 187.82L207.628 184.949C208.097 184.68 208.806 184.651 209.212 184.883L214.266 187.781C214.671 188.014 214.621 188.42 214.152 188.689L209.144 191.56C208.676 191.829 207.967 191.858 207.561 191.626Z" fill="#05033D"/>
<path d="M199.562 187.039L194.508 184.141C194.103 183.908 194.153 183.501 194.622 183.233L199.63 180.362C200.098 180.093 200.807 180.064 201.213 180.296L206.267 183.195C206.672 183.427 206.621 183.834 206.153 184.103L201.145 186.973C200.677 187.242 199.968 187.271 199.562 187.039Z" fill="#05033D"/>
<path d="M231.364 205.273L226.31 202.375C225.904 202.143 225.955 201.736 226.424 201.468L231.431 198.596C231.9 198.328 232.608 198.299 233.014 198.531L238.068 201.429C238.474 201.661 238.423 202.068 237.954 202.337L232.947 205.208C232.478 205.476 231.77 205.506 231.364 205.273Z" fill="#05033D"/>
<path d="M239.168 209.749L234.114 206.851C233.709 206.618 233.759 206.212 234.228 205.943L239.236 203.072C239.704 202.803 240.413 202.774 240.819 203.007L245.873 205.905C246.278 206.137 246.227 206.544 245.759 206.812L240.751 209.683C240.283 209.952 239.574 209.981 239.168 209.749Z" fill="#05033D"/>
<path d="M246.973 214.224L241.919 211.326C241.513 211.093 241.564 210.687 242.032 210.418L247.04 207.547C247.509 207.278 248.217 207.249 248.623 207.482L253.677 210.38C254.083 210.612 254.032 211.019 253.564 211.287L248.556 214.158C248.087 214.427 247.379 214.456 246.973 214.224Z" fill="#05033D"/>
<path d="M254.778 218.699L249.724 215.801C249.318 215.568 249.369 215.162 249.837 214.893L254.845 212.022C255.313 211.753 256.022 211.724 256.428 211.957L261.482 214.855C261.888 215.087 261.837 215.494 261.368 215.762L256.361 218.634C255.892 218.902 255.183 218.931 254.778 218.699Z" fill="#05033D"/>
<path d="M262.582 223.174L257.528 220.276C257.123 220.043 257.173 219.637 257.642 219.368L262.65 216.497C263.118 216.228 263.827 216.199 264.233 216.432L269.287 219.33C269.692 219.562 269.641 219.969 269.173 220.237L264.165 223.108C263.697 223.377 262.988 223.406 262.582 223.174Z" fill="#05033D"/>
<path d="M270.387 227.649L265.333 224.751C264.927 224.519 264.978 224.112 265.446 223.844L270.454 220.972C270.923 220.704 271.631 220.675 272.037 220.907L277.091 223.805C277.497 224.037 277.446 224.444 276.978 224.713L271.97 227.584C271.501 227.852 270.793 227.882 270.387 227.649Z" fill="#05033D"/>
<path d="M278.192 232.124L273.138 229.226C272.732 228.994 272.783 228.587 273.251 228.319L278.259 225.447C278.728 225.179 279.436 225.15 279.842 225.382L284.896 228.28C285.302 228.513 285.251 228.919 284.782 229.188L279.775 232.059C279.306 232.327 278.598 232.357 278.192 232.124Z" fill="#05033D"/>
<path d="M285.997 236.599L280.943 233.701C280.537 233.469 280.588 233.062 281.056 232.794L286.064 229.922C286.533 229.654 287.241 229.625 287.647 229.857L292.701 232.755C293.107 232.988 293.056 233.394 292.587 233.663L287.58 236.534C287.111 236.803 286.403 236.832 285.997 236.599Z" fill="#05033D"/>
<path d="M293.801 241.074L288.747 238.177C288.341 237.944 288.392 237.537 288.86 237.269L293.868 234.397C294.337 234.129 295.045 234.1 295.451 234.332L300.505 237.23C300.911 237.463 300.86 237.869 300.392 238.138L295.384 241.009C294.915 241.278 294.207 241.307 293.801 241.074Z" fill="#05033D"/>
<path d="M219.449 189.729L214.395 186.831C213.989 186.599 214.04 186.192 214.509 185.924L219.516 183.052C219.985 182.784 220.694 182.755 221.099 182.987L226.153 185.885C226.559 186.118 226.508 186.524 226.039 186.793L221.032 189.664C220.564 189.933 219.855 189.962 219.449 189.729Z" fill="#05033D"/>
<path d="M211.683 185.276L206.629 182.378C206.224 182.146 206.274 181.739 206.743 181.471L211.751 178.599C212.219 178.331 212.928 178.302 213.334 178.534L218.388 181.432C218.793 181.665 218.742 182.071 218.274 182.34L213.266 185.211C212.798 185.48 212.089 185.509 211.683 185.276Z" fill="#05033D"/>
<path d="M203.918 180.823L198.864 177.925C198.458 177.693 198.509 177.286 198.977 177.018L203.985 174.146C204.454 173.878 205.162 173.848 205.568 174.081L210.622 176.979C211.028 177.212 210.977 177.618 210.508 177.886L205.501 180.758C205.032 181.026 204.324 181.056 203.918 180.823Z" fill="#05033D"/>
<path d="M196.152 176.37L191.098 173.473C190.692 173.24 190.743 172.833 191.212 172.565L196.219 169.693C196.688 169.425 197.396 169.396 197.802 169.628L202.856 172.527C203.262 172.759 203.211 173.166 202.742 173.435L197.735 176.305C197.266 176.574 196.558 176.603 196.152 176.37Z" fill="#05033D"/>
<path d="M204.137 171.792L199.083 168.894C198.677 168.661 198.728 168.255 199.197 167.986L200.852 167.037C201.321 166.769 202.029 166.739 202.435 166.972L207.489 169.87C207.895 170.103 207.844 170.509 207.375 170.778L205.72 171.727C205.252 171.995 204.543 172.025 204.137 171.792Z" fill="#05033D"/>
<path d="M214.272 177.603L209.218 174.705C208.812 174.472 208.863 174.066 209.331 173.797L210.987 172.848C211.455 172.579 212.164 172.55 212.57 172.783L217.624 175.68C218.03 175.913 217.979 176.32 217.51 176.588L215.855 177.537C215.386 177.806 214.677 177.835 214.272 177.603Z" fill="#05033D"/>
<path d="M222.005 182.037L216.951 179.139C216.546 178.906 216.596 178.5 217.065 178.231L218.72 177.282C219.189 177.013 219.898 176.984 220.304 177.217L225.357 180.115C225.763 180.347 225.712 180.754 225.244 181.022L223.588 181.972C223.12 182.24 222.411 182.269 222.005 182.037Z" fill="#05033D"/>
<path d="M229.739 186.471L224.685 183.573C224.279 183.341 224.33 182.934 224.799 182.666L226.454 181.716C226.923 181.448 227.632 181.418 228.037 181.651L233.091 184.549C233.497 184.782 233.446 185.188 232.977 185.457L231.322 186.406C230.854 186.674 230.145 186.704 229.739 186.471Z" fill="#05033D"/>
<path d="M237.472 190.905L232.418 188.007C232.012 187.775 232.063 187.368 232.531 187.1L234.187 186.151C234.656 185.882 235.364 185.853 235.77 186.086L240.824 188.983C241.23 189.216 241.179 189.622 240.71 189.891L239.055 190.84C238.586 191.109 237.878 191.138 237.472 190.905Z" fill="#05033D"/>
<path d="M280.647 215.662L275.593 212.764C275.188 212.531 275.238 212.125 275.707 211.856L277.362 210.907C277.831 210.638 278.54 210.609 278.945 210.842L283.999 213.739C284.405 213.972 284.354 214.378 283.886 214.647L282.23 215.597C281.762 215.865 281.053 215.894 280.647 215.662Z" fill="#05033D"/>
<path d="M288.38 220.096L283.326 217.198C282.921 216.966 282.972 216.559 283.44 216.29L285.096 215.341C285.564 215.072 286.273 215.043 286.679 215.276L291.732 218.174C292.138 218.407 292.087 218.813 291.619 219.082L289.964 220.031C289.495 220.299 288.786 220.329 288.38 220.096Z" fill="#05033D"/>
<path d="M296.114 224.53L291.06 221.632C290.654 221.4 290.705 220.993 291.173 220.725L292.829 219.776C293.298 219.507 294.006 219.478 294.412 219.711L299.466 222.608C299.872 222.841 299.821 223.247 299.352 223.516L297.697 224.465C297.228 224.734 296.52 224.763 296.114 224.53Z" fill="#05033D"/>
<path d="M303.848 228.965L298.794 226.067C298.388 225.834 298.439 225.428 298.907 225.159L300.563 224.21C301.032 223.941 301.74 223.912 302.146 224.145L307.2 227.042C307.606 227.275 307.555 227.682 307.086 227.95L305.431 228.899C304.962 229.168 304.254 229.197 303.848 228.965Z" fill="#05033D"/>
<path d="M227.254 194.204L222.2 191.306C221.794 191.074 221.845 190.667 222.314 190.399L227.321 187.527C227.79 187.259 228.499 187.23 228.904 187.462L233.958 190.36C234.364 190.593 234.313 190.999 233.845 191.268L228.837 194.139C228.369 194.408 227.66 194.437 227.254 194.204Z" fill="#05033D"/>
<path d="M235.058 198.679L230.004 195.781C229.599 195.549 229.649 195.142 230.118 194.874L235.126 192.003C235.594 191.734 236.303 191.705 236.709 191.937L241.763 194.835C242.168 195.068 242.117 195.474 241.649 195.743L236.641 198.614C236.173 198.883 235.464 198.912 235.058 198.679Z" fill="#05033D"/>
<path d="M242.863 203.154L237.81 200.256C237.404 200.024 237.455 199.617 237.923 199.349L242.931 196.477C243.399 196.209 244.108 196.18 244.514 196.412L249.568 199.31C249.973 199.543 249.923 199.949 249.454 200.218L244.447 203.089C243.978 203.358 243.269 203.387 242.863 203.154Z" fill="#05033D"/>
<path d="M250.668 207.63L245.614 204.732C245.208 204.499 245.259 204.093 245.727 203.824L250.735 200.953C251.203 200.684 251.912 200.655 252.318 200.888L257.372 203.786C257.778 204.018 257.727 204.425 257.258 204.693L252.251 207.565C251.782 207.833 251.073 207.862 250.668 207.63Z" fill="#05033D"/>
<path d="M258.472 212.105L253.418 209.207C253.013 208.974 253.063 208.568 253.532 208.299L258.54 205.428C259.008 205.16 259.717 205.13 260.123 205.363L265.177 208.261C265.582 208.493 265.531 208.9 265.063 209.168L260.056 212.04C259.587 212.308 258.878 212.337 258.472 212.105Z" fill="#05033D"/>
<path d="M266.277 216.58L261.223 213.682C260.817 213.45 260.868 213.043 261.337 212.774L266.344 209.903C266.813 209.635 267.521 209.605 267.927 209.838L272.981 212.736C273.387 212.968 273.336 213.375 272.867 213.643L267.86 216.515C267.391 216.783 266.683 216.812 266.277 216.58Z" fill="#05033D"/>
<path d="M274.082 221.055L269.028 218.157C268.622 217.925 268.673 217.518 269.141 217.249L274.149 214.378C274.618 214.11 275.326 214.08 275.732 214.313L280.786 217.211C281.192 217.443 281.141 217.85 280.673 218.118L275.665 220.99C275.196 221.258 274.488 221.287 274.082 221.055Z" fill="#05033D"/>
<path d="M281.887 225.53L276.833 222.632C276.427 222.4 276.478 221.993 276.947 221.725L281.954 218.853C282.423 218.585 283.131 218.556 283.537 218.788L288.591 221.686C288.997 221.919 288.946 222.325 288.477 222.594L283.47 225.465C283.001 225.734 282.293 225.763 281.887 225.53Z" fill="#05033D"/>
<path d="M289.692 230.006L284.638 227.107C284.232 226.875 284.283 226.468 284.751 226.2L289.759 223.329C290.228 223.06 290.936 223.031 291.342 223.263L296.396 226.161C296.802 226.394 296.751 226.8 296.282 227.069L291.275 229.94C290.806 230.209 290.098 230.238 289.692 230.006Z" fill="#05033D"/>
<path d="M182.633 194.757L167.749 186.222C167.343 185.99 167.394 185.583 167.862 185.315L172.87 182.443C173.339 182.175 174.047 182.145 174.453 182.378L189.337 190.913C189.743 191.145 189.692 191.552 189.223 191.821L184.216 194.692C183.747 194.96 183.039 194.99 182.633 194.757Z" fill="#05033D"/>
<path d="M278.516 249.735L263.631 241.201C263.226 240.968 263.276 240.562 263.745 240.293L268.753 237.421C269.221 237.153 269.93 237.123 270.336 237.356L285.22 245.891C285.626 246.124 285.575 246.53 285.107 246.799L280.099 249.67C279.63 249.939 278.922 249.967 278.516 249.735Z" fill="#05033D"/>
<path d="M247.304 241.723L242.25 238.825C241.844 238.593 241.895 238.187 242.363 237.918L248.329 234.497C248.798 234.228 249.506 234.199 249.912 234.432L254.966 237.33C255.372 237.563 255.321 237.969 254.852 238.238L248.887 241.658C248.418 241.927 247.71 241.956 247.304 241.723Z" fill="#05033D"/>
<path d="M190.626 209.225L182.543 204.59C182.137 204.358 182.188 203.951 182.657 203.683L188.622 200.262C189.09 199.994 189.799 199.964 190.205 200.197L198.288 204.831C198.693 205.064 198.643 205.47 198.174 205.739L192.209 209.16C191.74 209.428 191.032 209.457 190.626 209.225Z" fill="#05033D"/>
<path d="M239.784 237.412L231.701 232.777C231.295 232.545 231.346 232.138 231.815 231.869L237.78 228.449C238.249 228.18 238.958 228.151 239.363 228.384L247.446 233.018C247.852 233.251 247.801 233.657 247.332 233.926L241.367 237.346C240.898 237.615 240.19 237.644 239.784 237.412Z" fill="#05033D"/>
<path d="M201.886 215.681L193.803 211.047C193.397 210.814 193.448 210.408 193.917 210.139L199.883 206.719C200.351 206.45 201.06 206.421 201.466 206.654L209.548 211.288C209.954 211.521 209.903 211.927 209.434 212.196L203.469 215.616C203 215.885 202.292 215.914 201.886 215.681Z" fill="#05033D"/>
<path d="M201.52 206.685L236.661 226.834C237.097 227.084 237.097 227.49 236.661 227.74L230.578 231.227C230.142 231.477 229.435 231.477 228.999 231.227L193.858 211.079L201.52 206.685Z" fill="#05033D"/>
<path d="M269.117 249.837L274.746 253.065C275.079 253.256 275.037 253.589 274.653 253.809L272.213 255.208C271.829 255.428 271.248 255.452 270.915 255.261L265.286 252.034C264.954 251.843 264.995 251.51 265.379 251.29L267.819 249.89C268.204 249.67 268.785 249.646 269.117 249.837Z" fill="#05033D"/>
<path d="M261.247 245.325L266.877 248.553C267.209 248.744 267.167 249.077 266.783 249.297L264.343 250.696C263.959 250.916 263.378 250.94 263.045 250.75L257.416 247.522C257.084 247.331 257.125 246.998 257.51 246.778L259.95 245.379C260.334 245.158 260.915 245.134 261.247 245.325Z" fill="#05033D"/>
<path d="M253.442 240.85L259.071 244.078C259.404 244.269 259.362 244.602 258.978 244.822L256.538 246.221C256.154 246.441 255.573 246.465 255.241 246.275L249.611 243.047C249.279 242.856 249.32 242.523 249.705 242.303L252.145 240.904C252.529 240.683 253.11 240.659 253.442 240.85Z" fill="#05033D"/>
<path d="M265.557 242.854L271.187 246.082C271.519 246.272 271.477 246.606 271.094 246.826L268.653 248.225C268.269 248.445 267.688 248.469 267.355 248.278L261.726 245.05C261.393 244.86 261.435 244.527 261.819 244.307L264.259 242.907C264.643 242.687 265.225 242.663 265.557 242.854Z" fill="#05033D"/>
</g>
<path d="M223.559 200.798L218.505 197.9C218.099 197.668 218.15 197.261 218.618 196.993L223.626 194.121C224.095 193.853 224.803 193.824 225.209 194.056L230.263 196.954C230.669 197.186 230.618 197.593 230.15 197.862L225.142 200.733C224.673 201.001 223.965 201.031 223.559 200.798Z" fill="#EB7D42" fill-opacity="0.973202"/>
<path d="M229.633 32.125L196.319 140.989C195.484 143.685 196.707 146.961 199.052 148.306L348.157 233.801C350.502 235.145 353.08 234.049 353.914 231.352L387.634 122.623C388.469 119.927 387.515 116.181 385.171 114.837L236.066 29.4097C233.138 27.5191 230.226 30.2104 229.633 32.125Z" fill="url(#paint8_linear_498_2055)"/>
<path d="M346.751 229.993L202.128 146.998C199.884 145.712 198.713 142.577 199.512 139.997L231.749 36.052C232.549 33.4718 235.015 32.4227 237.259 33.7094L381.883 116.704C384.127 117.99 385.297 121.125 384.498 123.705L352.261 227.65C351.462 230.231 348.995 231.28 346.751 229.993Z" fill="url(#paint9_linear_498_2055)"/>
<g opacity="0.4">
<path d="M202.275 258.25C200.926 258.25 199.635 257.972 198.648 257.405V257.406L159.423 234.916C158.384 234.319 157.812 233.467 157.812 232.516C157.811 231.412 158.6 230.326 159.975 229.538L180.165 217.96C182.633 216.547 186.253 216.408 188.412 217.644L227.636 240.135C228.675 240.731 229.247 241.584 229.248 242.535C229.248 243.639 228.46 244.725 227.085 245.513L206.894 257.091C205.555 257.858 203.876 258.25 202.275 258.25ZM184.803 217.939C183.384 217.939 181.879 218.278 180.732 218.935L160.541 230.512C159.526 231.094 158.943 231.825 158.943 232.516C158.943 233.198 159.512 233.667 159.99 233.941L199.215 256.432C200.994 257.451 204.25 257.308 206.327 256.116L226.519 244.539C227.534 243.957 228.116 243.227 228.116 242.535C228.116 241.853 227.547 241.383 227.069 241.11L187.845 218.62C187.049 218.162 185.954 217.939 184.803 217.939Z" fill="#05033D"/>
</g>
<g opacity="0.5">
<path d="M338.981 198.227L241.078 142.091C239.539 141.208 238.736 139.057 239.284 137.287L261.424 65.8949C261.972 64.1245 263.665 63.4048 265.204 64.2874L363.107 120.424C364.646 121.306 365.45 123.457 364.901 125.228L342.761 196.62C342.213 198.39 340.52 199.11 338.981 198.227Z" fill="#05033D"/>
</g>
<path d="M248.195 67.6179L226.056 139.01C225.507 140.781 226.311 142.932 227.85 143.814L325.753 199.95C327.292 200.833 328.985 200.114 329.533 198.343L351.673 126.951C352.221 125.18 351.418 123.03 349.878 122.147L251.976 66.0104C251.53 65.7548 251.071 65.6334 250.63 65.6334C249.551 65.6334 248.585 66.3608 248.195 67.6179Z" fill="url(#paint10_linear_498_2055)"/>
<g opacity="0.5">
<path d="M325.752 199.95L227.85 143.814C226.31 142.931 225.507 140.78 226.055 139.01L248.196 67.6178C248.744 65.8474 250.437 65.1277 251.976 66.0103L349.878 122.147C351.418 123.029 352.221 125.18 351.673 126.951L329.533 198.343C328.984 200.113 327.292 200.833 325.752 199.95Z" fill="#05033D"/>
</g>
<mask id="mask0_498_2055" style="mask-type:alpha" maskUnits="userSpaceOnUse" x="245" y="62" width="109" height="143">
<path d="M327.538 202.157C327.538 202.157 348.964 134.834 350.615 128.71C351.897 123.952 351.222 123.215 345.216 119.998C334.786 114.411 248.05 64.3767 248.05 64.3767" stroke="#FF0A0A" stroke-width="4.44444" stroke-linecap="round"/>
</mask>
<g mask="url(#mask0_498_2055)">
<path d="M349.879 122.147L251.976 66.0108C251.011 65.4576 249.987 65.5348 249.221 66.1043C249.683 66.0906 250.164 66.1944 250.635 66.4637L348.538 122.6C350.077 123.483 350.88 125.634 350.332 127.404L328.192 198.796C327.987 199.457 327.622 199.971 327.166 200.31C328.216 200.279 329.152 199.573 329.533 198.343L351.673 126.951C352.221 125.181 351.418 123.03 349.879 122.147Z" fill="white"/>
</g>
<mask id="mask1_498_2055" style="mask-type:alpha" maskUnits="userSpaceOnUse" x="249" y="84" width="64" height="42">
<path d="M253.583 89.1714C253.583 89.1714 289.588 110.115 308.463 121.095" stroke="#FF0A0A" stroke-width="8.88889" stroke-linecap="round"/>
</mask>
<g mask="url(#mask1_498_2055)">
<path d="M275.823 103.465L269.77 99.9947C269.208 99.6726 268.907 98.8989 269.097 98.2663C269.287 97.6337 269.897 97.3815 270.458 97.7036L276.511 101.174C277.072 101.496 277.373 102.27 277.183 102.903C276.993 103.536 276.384 103.787 275.823 103.465Z" fill="white"/>
<path d="M290.24 111.732L281.315 106.615C280.753 106.293 280.452 105.519 280.642 104.886C280.832 104.254 281.442 104.002 282.003 104.324L290.928 109.441C291.49 109.763 291.791 110.538 291.601 111.17C291.411 111.803 290.802 112.054 290.24 111.732Z" fill="white"/>
<path d="M317.462 127.341L295.733 114.881C295.171 114.56 294.87 113.786 295.06 113.153C295.25 112.521 295.86 112.269 296.421 112.591L318.15 125.05C318.712 125.372 319.013 126.146 318.823 126.778C318.633 127.411 318.023 127.663 317.462 127.341Z" fill="#EDE2FF"/>
<path d="M264.277 96.8449L255.352 91.7279C254.79 91.4058 254.489 90.6316 254.679 89.999C254.869 89.3664 255.478 89.1151 256.04 89.4372L264.965 94.5538C265.527 94.8759 265.827 95.6505 265.637 96.2831C265.447 96.9157 264.839 97.167 264.277 96.8449Z" fill="#F7349D"/>
</g>
<path d="M319.9 116.242L315.476 113.706C315.066 113.471 314.845 112.905 314.985 112.442C315.124 111.98 315.569 111.796 315.979 112.031L320.403 114.568C320.814 114.803 321.034 115.369 320.895 115.831C320.756 116.294 320.311 116.478 319.9 116.242Z" fill="white"/>
<path d="M328.339 121.081L323.915 118.545C323.505 118.31 323.284 117.744 323.424 117.281C323.562 116.819 324.008 116.635 324.418 116.87L328.842 119.407C329.253 119.642 329.473 120.208 329.334 120.67C329.195 121.133 328.75 121.317 328.339 121.081Z" fill="white"/>
<path d="M336.778 125.92L332.354 123.384C331.943 123.148 331.723 122.583 331.862 122.12C332.001 121.658 332.446 121.474 332.857 121.709L337.281 124.246C337.691 124.481 337.911 125.047 337.773 125.509C337.634 125.972 337.188 126.155 336.778 125.92Z" fill="white"/>
<path d="M340.926 128.301L340.793 128.222C340.382 127.986 340.162 127.421 340.301 126.958C340.44 126.496 340.885 126.312 341.296 126.547L341.429 126.627C341.839 126.862 342.059 127.427 341.92 127.89C341.782 128.353 341.336 128.537 340.926 128.301Z" fill="#F7349D"/>
<g opacity="0.5">
<path d="M125.419 171.199C118.248 175.31 106.622 175.31 99.4515 171.199C92.2806 167.087 92.2806 160.421 99.4511 156.309C106.622 152.198 118.248 152.198 125.418 156.31C132.589 160.421 132.589 167.087 125.419 171.199Z" fill="#01012F"/>
</g>
<path d="M84.6289 76.3621L90.0219 138.707C90.0219 142.17 92.3254 145.633 96.9337 148.275C106.149 153.559 121.09 153.559 130.305 148.276C134.914 145.633 137.217 142.17 137.217 138.707L142.609 76.3621H84.6289Z" fill="url(#paint11_linear_498_2055)"/>
<g opacity="0.25">
<path d="M142.61 76.3621H84.6289L85.5159 86.6189C86.8447 88.3109 88.6326 89.933 90.8899 91.4199C101.969 98.7192 120.25 100.126 132.725 94.869L130.795 140.469C130.711 142.456 130.02 144.389 128.724 145.906C126.845 148.101 123.227 150.684 116.271 152.144C121.398 151.813 126.374 150.53 130.306 148.276C134.914 145.633 137.217 142.171 137.217 138.707L141.542 88.7081L142.61 76.3621Z" fill="#05033D"/>
</g>
<path d="M92.3066 58.2938C86.54 61.6001 83.606 65.9135 83.4899 70.247L83.483 70.2324L82.9531 75.2028C82.938 75.3327 82.9216 75.4614 82.9112 75.5909L82.9026 75.6728L82.9082 75.6694C82.5903 80.4048 85.5783 85.1997 91.8838 88.8148C103.888 95.6981 123.351 95.6985 135.356 88.8153C141.701 85.1766 144.689 80.3439 144.327 75.5789L144.33 75.5828L144.325 75.5326C144.323 75.5039 144.319 75.4756 144.316 75.4468L143.76 69.8648L143.736 69.9274C143.487 65.7029 140.557 61.5195 134.932 58.2943C129.046 54.9198 121.332 53.2321 113.618 53.2321C105.905 53.2321 98.1918 54.9193 92.3066 58.2938Z" fill="url(#paint12_linear_498_2055)"/>
<path d="M95.9624 60.3787C86.2108 65.9697 86.2112 75.0351 95.9629 80.6265C105.715 86.2184 121.525 86.2184 131.276 80.6269C141.027 75.0359 141.027 65.9701 131.276 60.3791C126.399 57.5827 120.01 56.185 113.618 56.185C107.229 56.1854 100.838 57.5832 95.9624 60.3787Z" fill="#9C2DF9"/>
<path d="M94.7778 60.3787C85.0266 65.9697 85.0275 75.0351 94.7787 80.6265C104.53 86.2184 120.34 86.2184 130.092 80.6269C139.843 75.0359 139.842 65.9701 130.091 60.3791C125.215 57.5827 118.825 56.185 112.434 56.185C106.044 56.1854 99.653 57.5832 94.7778 60.3787Z" fill="url(#paint13_linear_498_2055)"/>
<g opacity="0.5">
<path d="M98.9247 62.5115C108.676 56.9201 124.486 56.9201 134.238 62.512C134.362 62.5831 134.466 62.6612 134.587 62.7333C133.646 61.9004 132.549 61.1091 131.276 60.3791C121.524 54.7877 105.714 54.7872 95.9626 60.3787C86.3354 65.8989 86.2317 74.7988 95.6137 80.4052C89.3488 74.8579 90.4466 67.3725 98.9247 62.5115Z" fill="#05033D"/>
</g>
<path d="M95.962 60.3787C90.5354 63.4907 88.133 67.6784 88.7471 71.7447C89.2364 68.5053 91.6388 65.3426 95.962 62.8632C105.714 57.2722 121.524 57.2722 131.276 62.8637C135.6 65.3431 138.002 68.5057 138.492 71.7455C139.105 67.6792 136.703 63.4911 131.276 60.3791C126.4 57.5832 120.009 56.1854 113.618 56.185C107.228 56.185 100.838 57.5827 95.962 60.3787Z" fill="url(#paint14_linear_498_2055)"/>
<path d="M95.9631 80.6265C86.2115 75.0351 86.2111 65.9697 95.9627 60.3787C105.714 54.7868 121.524 54.7872 131.276 60.3791C141.028 65.9701 141.028 75.0359 131.276 80.6269C128.019 82.4947 124.08 83.7239 119.922 84.3433L119.468 82.8644C119.286 82.267 118.731 81.8591 118.102 81.8591H109.136C108.508 81.8591 107.953 82.267 107.77 82.8644L107.317 84.3433C103.159 83.7235 99.2206 82.4939 95.9631 80.6265ZM92.3369 58.0506C80.4635 64.7212 80.3668 75.7037 92.1205 82.5805C103.874 89.4578 123.028 89.6255 134.901 82.9549C146.775 76.2844 146.872 65.3019 135.118 58.4246C129.124 54.9176 121.204 53.1553 113.308 53.1553C105.721 53.1549 98.1557 54.7817 92.3369 58.0506Z" fill="url(#paint15_linear_498_2055)"/>
<path d="M131.276 59.3189C121.524 53.7274 105.714 53.7274 95.9627 59.3189C90.8518 62.249 88.4248 66.1335 88.6714 69.972C88.8951 66.4869 91.3221 63.0395 95.9627 60.3787C105.714 54.7872 121.524 54.7877 131.276 60.3791C135.916 63.0399 138.343 66.4873 138.568 69.9729C138.814 66.1343 136.387 62.2495 131.276 59.3189Z" fill="white"/>
<path d="M134.902 81.8947C123.028 88.5652 103.874 88.3975 92.1201 81.5203C86.5268 78.2479 83.6234 74.0452 83.3898 69.8202C83.1583 74.396 86.0586 79.034 92.1201 82.5805C103.874 89.4578 123.028 89.6255 134.902 82.9549C141.124 79.4586 144.107 74.7782 143.849 70.1247C143.631 74.4218 140.652 78.6643 134.902 81.8947Z" fill="white"/>
<path d="M116.694 85.114H110.545C110.389 85.114 110.263 84.9883 110.263 84.8339V83.9551C110.263 83.8003 110.389 83.6746 110.545 83.6746H116.694C116.85 83.6746 116.976 83.8003 116.976 83.9551V84.8335C116.976 84.9883 116.85 85.114 116.694 85.114Z" fill="#0C0978"/>
<path d="M110.263 83.675H116.976V84.6203H110.263V83.675Z" fill="#150C80"/>
<path d="M114.44 132.303C113.783 134.759 111.246 136.22 108.774 135.568C106.301 134.914 104.83 132.395 105.487 129.94C106.144 127.484 108.477 126.788 110.949 127.441C113.421 128.094 115.098 129.848 114.44 132.303Z" fill="#823BEC"/>
<path d="M118.087 127.457C117.154 128.362 115.961 128.245 115.17 127.441C114.378 126.636 114.287 125.449 115.22 124.544C116.152 123.638 117.925 123.192 118.717 123.997C119.508 124.802 119.019 126.551 118.087 127.457Z" fill="#823BEC"/>
<path d="M113.243 123.608C113.014 124.883 111.975 125.477 110.86 125.28C109.744 125.083 108.975 124.17 109.204 122.895C109.432 121.62 110.614 120.233 111.729 120.43C112.844 120.627 113.471 122.333 113.243 123.608Z" fill="#823BEC"/>
<path d="M107.271 123.019C107.767 124.217 107.211 125.272 106.164 125.7C105.116 126.128 103.974 125.767 103.478 124.569C102.982 123.372 103.229 121.572 104.277 121.144C105.324 120.716 106.775 121.822 107.271 123.019Z" fill="#823BEC"/>
<mask id="mask2_498_2055" style="mask-type:alpha" maskUnits="userSpaceOnUse" x="97" y="21" width="37" height="56">
<path d="M122.274 65.6731C120.384 54.9509 111.612 49.1877 109.723 39.0015C109.189 36.1242 108.939 33.9508 108.912 32.1307" stroke="#FF0A0A" stroke-width="22.2222" stroke-linecap="round"/>
</mask>
<g mask="url(#mask2_498_2055)">
<g opacity="0.5">
<path d="M115.518 84.3944C115.518 84.3944 131.728 78.9998 125.165 60.5019C118.602 42.0039 105.822 36.3661 110.97 21.5682C110.97 21.5682 102.902 33.5475 110.442 49.7552C117.981 65.9629 119.634 64.1011 119.546 71.8528C119.44 81.0619 111.949 84.3944 111.949 84.3944H115.518Z" fill="white"/>
</g>
</g>
<mask id="mask3_498_2055" style="mask-type:alpha" maskUnits="userSpaceOnUse" x="108" y="-12" width="30" height="59">
<path d="M122.889 7.18871C123.911 4.79337 125.14 2.3873 126.593 0M120.115 35.6514C119.839 34.6917 119.605 33.6898 119.417 32.6508" stroke="#FF0A0A" stroke-width="22.2222" stroke-linecap="round"/>
</mask>
<g mask="url(#mask3_498_2055)">
<g opacity="0.5">
<path d="M116.977 24.1411C116.977 24.1411 115.289 13.0757 125.739 1.92462C125.739 1.92462 116.498 22.4255 119.521 32.5473C119.521 32.5473 117.076 26.1135 116.977 24.1411Z" fill="white"/>
</g>
</g>
<defs>
<linearGradient id="paint0_linear_498_2055" x1="421.698" y1="283.338" x2="457.934" y2="283.511" gradientUnits="userSpaceOnUse">
<stop/>
<stop offset="0.5" stop-color="#4C12A1"/>
<stop offset="1" stop-color="#833BED"/>
</linearGradient>
<linearGradient id="paint1_linear_498_2055" x1="374.194" y1="237.396" x2="435.757" y2="237.696" gradientUnits="userSpaceOnUse">
<stop/>
<stop offset="0.5" stop-color="#4C12A1"/>
<stop offset="1" stop-color="#833BED"/>
</linearGradient>
<linearGradient id="paint2_linear_498_2055" x1="0.789043" y1="257.148" x2="61.2286" y2="256.356" gradientUnits="userSpaceOnUse">
<stop/>
<stop offset="0.5" stop-color="#4C12A1"/>
<stop offset="1" stop-color="#833BED"/>
</linearGradient>
<linearGradient id="paint3_linear_498_2055" x1="72.7073" y1="163.672" x2="154.214" y2="163.721" gradientUnits="userSpaceOnUse">
<stop/>
<stop offset="0.5" stop-color="#4C12A1"/>
<stop offset="1" stop-color="#833BED"/>
</linearGradient>
<linearGradient id="paint4_linear_498_2055" x1="66.6752" y1="237.006" x2="373.982" y2="268.284" gradientUnits="userSpaceOnUse">
<stop/>
<stop offset="0.5" stop-color="#4C12A1"/>
<stop offset="1" stop-color="#833BED"/>
</linearGradient>
<linearGradient id="paint5_linear_498_2055" x1="295.786" y1="133.387" x2="245.338" y2="61.3903" gradientUnits="userSpaceOnUse">
<stop stop-color="#0D0C6F"/>
<stop offset="0.5" stop-color="#642F9D"/>
<stop offset="1" stop-color="#833BED"/>
</linearGradient>
<linearGradient id="paint6_linear_498_2055" x1="91.6051" y1="209.148" x2="266.685" y2="230.917" gradientUnits="userSpaceOnUse">
<stop stop-color="#833BED"/>
<stop offset="0.54" stop-color="#4C12A1"/>
<stop offset="1" stop-color="#560DE5"/>
</linearGradient>
<linearGradient id="paint7_linear_498_2055" x1="148.803" y1="173.98" x2="275.15" y2="231.631" gradientUnits="userSpaceOnUse">
<stop stop-color="#833BED"/>
<stop offset="0.54" stop-color="#853EBB"/>
<stop offset="1" stop-color="#4315CA"/>
</linearGradient>
<linearGradient id="paint8_linear_498_2055" x1="323.396" y1="150.081" x2="217.397" y2="95.8716" gradientUnits="userSpaceOnUse">
<stop stop-color="#560DE5"/>
<stop offset="0.5" stop-color="#872CDD"/>
<stop offset="1" stop-color="#B84AD5"/>
</linearGradient>
<linearGradient id="paint9_linear_498_2055" x1="216.016" y1="89.8569" x2="440.272" y2="214.951" gradientUnits="userSpaceOnUse">
<stop stop-color="#2A0A8B"/>
<stop offset="0.54" stop-color="#3D2780"/>
<stop offset="1" stop-color="#504475"/>
</linearGradient>
<linearGradient id="paint10_linear_498_2055" x1="306.376" y1="143.717" x2="235.516" y2="111.847" gradientUnits="userSpaceOnUse">
<stop stop-color="#560DE5"/>
<stop offset="0.5" stop-color="#801FEF"/>
<stop offset="1" stop-color="#AA31F8"/>
</linearGradient>
<linearGradient id="paint11_linear_498_2055" x1="87.4649" y1="90.15" x2="134.111" y2="143.283" gradientUnits="userSpaceOnUse">
<stop stop-color="#EEE2FF"/>
<stop offset="0.22" stop-color="#8748AA"/>
<stop offset="1" stop-color="#3F1ABE"/>
</linearGradient>
<linearGradient id="paint12_linear_498_2055" x1="84.0275" y1="77.5068" x2="141.647" y2="81.86" gradientUnits="userSpaceOnUse">
<stop stop-color="#833BED"/>
<stop offset="0.38" stop-color="#8A529B"/>
<stop offset="1" stop-color="#3919BB"/>
</linearGradient>
<linearGradient id="paint13_linear_498_2055" x1="88.89" y1="70.283" x2="136.029" y2="71.4114" gradientUnits="userSpaceOnUse">
<stop stop-color="#5921EE"/>
<stop offset="0.5" stop-color="#7E28F4"/>
<stop offset="1" stop-color="#A42EFA"/>
</linearGradient>
<linearGradient id="paint14_linear_498_2055" x1="101" y1="61.6975" x2="134.411" y2="65.6285" gradientUnits="userSpaceOnUse">
<stop stop-color="#16005B"/>
<stop offset="0.5" stop-color="#652989"/>
<stop offset="1" stop-color="#B552B7"/>
</linearGradient>
<linearGradient id="paint15_linear_498_2055" x1="86.2599" y1="69.7842" x2="140.514" y2="70.1938" gradientUnits="userSpaceOnUse">
<stop stop-color="#EEE2FF"/>
<stop offset="0.5" stop-color="#9042BE"/>
<stop offset="1" stop-color="#591FCD"/>
</linearGradient>
</defs>
</svg>
