<svg width="30" height="30" viewBox="0 0 30 30" fill="none" xmlns="http://www.w3.org/2000/svg">
<path d="M28.3358 20.2809L29.2292 15.7146L24.9607 14.8764C24.9607 13.7514 24.7622 12.6264 24.3982 11.5345L27.9166 9.17413L25.3247 5.3138L21.9497 7.57485C20.946 6.56013 19.7658 5.77703 18.4864 5.24761L19.3247 0.968158L14.7584 0.0747681L13.8981 4.47555C12.9606 4.5307 12.0341 4.70717 11.1187 5.01599L8.76938 1.5086L4.90904 4.10054L7.17008 7.47558C6.15537 8.47927 5.37228 9.65943 4.84287 10.9389L1.10384 10.1999L0.210449 14.7661L4.08183 15.5271C4.148 16.7183 4.4127 17.9095 4.898 19.0456L1.52297 21.3066L4.11491 25.167L7.63334 22.8066C8.64806 23.689 9.79511 24.3508 11.0304 24.7809L10.1812 29.0824L14.7474 29.9758L15.6628 25.3103C16.6665 25.2 17.6592 24.9464 18.6187 24.5272L20.8798 27.9023L24.7402 25.3103L22.3798 21.7919C23.0085 21.064 23.5269 20.2698 23.935 19.4316L28.3358 20.2809ZM16.8871 18.45C14.9349 19.7625 12.2878 19.2441 10.9753 17.2919C9.66277 15.3396 10.1811 12.6926 12.1334 11.38C14.0856 10.0675 16.7327 10.5859 18.0452 12.5381C19.3577 14.4904 18.8283 17.1375 16.8871 18.45Z" fill="#CADFF5"/>
</svg>
