<svg width="133" height="131" viewBox="0 0 133 131" fill="none" xmlns="http://www.w3.org/2000/svg">
<g filter="url(#filter0_d_824_354)">
<ellipse cx="7.13392" cy="4.01089" rx="4.13392" ry="4.01089" fill="#00FF9D"/>
<ellipse cx="7.13392" cy="29.6806" rx="4.13392" ry="4.01089" fill="#00FF9D"/>
<ellipse cx="7.13392" cy="55.3502" rx="4.13392" ry="4.01089" fill="#00FF9D"/>
<ellipse cx="7.13392" cy="81.0199" rx="4.13392" ry="4.01089" fill="#00FF9D"/>
<ellipse cx="7.13392" cy="106.69" rx="4.13392" ry="4.01089" fill="#00FF9D"/>
<ellipse cx="33.5905" cy="4.01089" rx="4.13392" ry="4.01089" fill="#00FF9D"/>
<ellipse cx="33.5905" cy="29.6806" rx="4.13392" ry="4.01089" fill="#00FF9D"/>
<ellipse cx="33.5905" cy="55.3502" rx="4.13392" ry="4.01089" fill="#00FF9D"/>
<ellipse cx="33.5905" cy="81.0199" rx="4.13392" ry="4.01089" fill="#00FF9D"/>
<ellipse cx="33.5905" cy="106.69" rx="4.13392" ry="4.01089" fill="#00FF9D"/>
<ellipse cx="60.048" cy="4.01089" rx="4.13392" ry="4.01089" fill="#00FF9D"/>
<ellipse cx="60.048" cy="29.6806" rx="4.13392" ry="4.01089" fill="#00FF9D"/>
<ellipse cx="60.048" cy="55.3502" rx="4.13392" ry="4.01089" fill="#00FF9D"/>
<ellipse cx="60.048" cy="81.0199" rx="4.13392" ry="4.01089" fill="#00FF9D"/>
<ellipse cx="60.048" cy="106.69" rx="4.13392" ry="4.01089" fill="#00FF9D"/>
<ellipse cx="86.505" cy="4.01089" rx="4.13392" ry="4.01089" fill="#00FF9D"/>
<ellipse cx="86.505" cy="29.6806" rx="4.13392" ry="4.01089" fill="#00FF9D"/>
<ellipse cx="86.505" cy="55.3502" rx="4.13392" ry="4.01089" fill="#00FF9D"/>
<ellipse cx="86.505" cy="81.0199" rx="4.13392" ry="4.01089" fill="#00FF9D"/>
<ellipse cx="86.505" cy="106.69" rx="4.13392" ry="4.01089" fill="#00FF9D"/>
<ellipse cx="112.963" cy="4.01089" rx="4.13392" ry="4.01089" fill="#00FF9D"/>
<ellipse cx="112.963" cy="29.6806" rx="4.13392" ry="4.01089" fill="#00FF9D"/>
<ellipse cx="112.963" cy="55.3502" rx="4.13392" ry="4.01089" fill="#00FF9D"/>
<ellipse cx="112.963" cy="81.0199" rx="4.13392" ry="4.01089" fill="#00FF9D"/>
<ellipse cx="112.963" cy="106.69" rx="4.13392" ry="4.01089" fill="#00FF9D"/>
</g>
<g filter="url(#filter1_d_824_354)">
<ellipse cx="20.0382" cy="18.2729" rx="4.13392" ry="4.01089" fill="#223345"/>
<ellipse cx="20.0382" cy="43.9425" rx="4.13392" ry="4.01089" fill="#223345"/>
<ellipse cx="20.0382" cy="69.6122" rx="4.13392" ry="4.01089" fill="#223345"/>
<ellipse cx="20.0382" cy="95.2819" rx="4.13392" ry="4.01089" fill="#223345"/>
<ellipse cx="20.0382" cy="120.952" rx="4.13392" ry="4.01089" fill="#223345"/>
<ellipse cx="46.4948" cy="18.2729" rx="4.13392" ry="4.01089" fill="#223345"/>
<ellipse cx="46.4948" cy="43.9425" rx="4.13392" ry="4.01089" fill="#223345"/>
<ellipse cx="46.4948" cy="69.6122" rx="4.13392" ry="4.01089" fill="#223345"/>
<ellipse cx="46.4948" cy="95.2819" rx="4.13392" ry="4.01089" fill="#223345"/>
<ellipse cx="46.4948" cy="120.952" rx="4.13392" ry="4.01089" fill="#223345"/>
<ellipse cx="72.9523" cy="18.2729" rx="4.13392" ry="4.01089" fill="#223345"/>
<ellipse cx="72.9523" cy="43.9425" rx="4.13392" ry="4.01089" fill="#223345"/>
<ellipse cx="72.9523" cy="69.6122" rx="4.13392" ry="4.01089" fill="#223345"/>
<ellipse cx="72.9523" cy="95.2819" rx="4.13392" ry="4.01089" fill="#223345"/>
<ellipse cx="72.9523" cy="120.952" rx="4.13392" ry="4.01089" fill="#223345"/>
<ellipse cx="99.4093" cy="18.2729" rx="4.13392" ry="4.01089" fill="#223345"/>
<ellipse cx="99.4093" cy="43.9425" rx="4.13392" ry="4.01089" fill="#223345"/>
<ellipse cx="99.4093" cy="69.6122" rx="4.13392" ry="4.01089" fill="#223345"/>
<ellipse cx="99.4093" cy="95.2819" rx="4.13392" ry="4.01089" fill="#223345"/>
<ellipse cx="99.4093" cy="120.952" rx="4.13392" ry="4.01089" fill="#223345"/>
<ellipse cx="125.867" cy="18.2729" rx="4.13392" ry="4.01089" fill="#223345"/>
<ellipse cx="125.867" cy="43.9425" rx="4.13392" ry="4.01089" fill="#223345"/>
<ellipse cx="125.867" cy="69.6122" rx="4.13392" ry="4.01089" fill="#223345"/>
<ellipse cx="125.867" cy="95.2819" rx="4.13392" ry="4.01089" fill="#223345"/>
<ellipse cx="125.867" cy="120.952" rx="4.13392" ry="4.01089" fill="#223345"/>
</g>
<defs>
<filter id="filter0_d_824_354" x="0.283422" y="0" width="119.53" height="116.134" filterUnits="userSpaceOnUse" color-interpolation-filters="sRGB">
<feFlood flood-opacity="0" result="BackgroundImageFix"/>
<feColorMatrix in="SourceAlpha" type="matrix" values="0 0 0 0 0 0 0 0 0 0 0 0 0 0 0 0 0 0 127 0" result="hardAlpha"/>
<feOffset dy="2.71658"/>
<feGaussianBlur stdDeviation="1.35829"/>
<feComposite in2="hardAlpha" operator="out"/>
<feColorMatrix type="matrix" values="0 0 0 0 0 0 0 0 0 0 0 0 0 0 0 0 0 0 0.25 0"/>
<feBlend mode="normal" in2="BackgroundImageFix" result="effect1_dropShadow_824_354"/>
<feBlend mode="normal" in="SourceGraphic" in2="effect1_dropShadow_824_354" result="shape"/>
</filter>
<filter id="filter1_d_824_354" x="13.1877" y="14.262" width="119.53" height="116.134" filterUnits="userSpaceOnUse" color-interpolation-filters="sRGB">
<feFlood flood-opacity="0" result="BackgroundImageFix"/>
<feColorMatrix in="SourceAlpha" type="matrix" values="0 0 0 0 0 0 0 0 0 0 0 0 0 0 0 0 0 0 127 0" result="hardAlpha"/>
<feOffset dy="2.71658"/>
<feGaussianBlur stdDeviation="1.35829"/>
<feComposite in2="hardAlpha" operator="out"/>
<feColorMatrix type="matrix" values="0 0 0 0 0 0 0 0 0 0 0 0 0 0 0 0 0 0 0.25 0"/>
<feBlend mode="normal" in2="BackgroundImageFix" result="effect1_dropShadow_824_354"/>
<feBlend mode="normal" in="SourceGraphic" in2="effect1_dropShadow_824_354" result="shape"/>
</filter>
</defs>
</svg>
