<svg width="30" height="31" viewBox="0 0 30 31" fill="none" xmlns="http://www.w3.org/2000/svg">
<path d="M28.4435 20.6657L29.3369 16.0995L25.0684 15.2613C25.0684 14.1363 24.8699 13.0112 24.5059 11.9193L28.0244 9.54797L25.4324 5.68764L22.0574 7.94869C21.0537 6.93397 19.8735 6.15088 18.5941 5.62146L19.4324 1.342L14.8661 0.448608L14.0058 4.84939C13.0683 4.90454 12.1418 5.08101 11.2264 5.38984L8.86606 1.87142L5.00572 4.46336L7.26678 7.8384C6.25206 8.84208 5.46896 10.0222 4.93955 11.3017L1.20054 10.5627L0.307129 15.1289L4.17851 15.89C4.24468 17.0811 4.50938 18.2723 4.99468 19.4084L1.61965 21.6694L4.21159 25.5298L7.73002 23.1694C8.74473 24.0518 9.89181 24.7136 11.1271 25.1437L10.2778 29.4453L14.8441 30.3386L15.7595 25.6732C16.7632 25.5629 17.7559 25.3092 18.7154 24.8901L20.9765 28.2651L24.8368 25.6732L22.4655 22.1547C23.0942 21.4268 23.6125 20.6327 24.0206 19.7944L28.4435 20.6657ZM16.9838 18.8348C15.0316 20.1474 12.3845 19.629 11.072 17.6767C9.75945 15.7245 10.2778 13.0774 12.2301 11.7649C14.1823 10.4524 16.8294 10.9708 18.1419 12.923C19.4544 14.8752 18.936 17.5334 16.9838 18.8348Z" fill="#CADFF5"/>
</svg>
